<svg width="80" height="80" viewBox="0 0 80 80" fill="none" xmlns="http://www.w3.org/2000/svg">
<g filter="url(#filter0_b_273_4026)">
<path fill-rule="evenodd" clip-rule="evenodd" d="M10.8333 30C10.8333 13.8917 23.8916 0.833313 39.9999 0.833313C56.1082 0.833313 69.1666 13.8917 69.1666 30C69.1666 31.4235 69.0644 32.8238 68.867 34.1938C68.4448 35.3154 67.9591 36.4058 67.4143 37.4606C63.0418 45.927 54.865 52.104 45.1571 53.7377C43.4817 54.0196 41.759 54.1666 40 54.1666C37.9433 54.1666 35.9359 53.9656 33.9958 53.5829C24.4882 51.7072 16.5418 45.4539 12.3546 37.0037C11.9025 36.0914 11.4943 35.1536 11.1327 34.1928C10.9353 32.8231 10.8333 31.4231 10.8333 30Z" fill="url(#paint0_linear_273_4026)"/>
<path d="M10.8787 44.2175C10.5831 44.7176 10.2719 45.2569 9.93665 45.8378L3.85006 56.3801C3.09849 57.6814 2.40355 58.8847 2.00289 59.8808C1.61045 60.8564 1.11621 62.5483 2.20841 64.1142C3.31445 65.7 5.08986 65.794 6.14205 65.7417C7.20736 65.6888 8.56164 65.4222 10.0164 65.1358L12.654 64.617C14.1162 64.3294 14.9837 64.1635 15.6274 64.1192C15.9214 64.099 16.0792 64.1126 16.1569 64.1257C16.1926 64.1317 16.2136 64.1388 16.2136 64.1388L16.2234 64.1433L16.2322 64.1495C16.2322 64.1495 16.2489 64.1642 16.2719 64.1921C16.3221 64.2529 16.4128 64.3827 16.5423 64.6475C16.8258 65.227 17.1159 66.0613 17.5979 67.4714L18.4673 70.0147C18.9467 71.4179 19.393 72.7241 19.8798 73.6732C20.3606 74.6106 21.3297 76.1012 23.2561 76.2661C25.1584 76.429 26.3764 75.1551 27.0251 74.3274C27.6874 73.4823 28.3821 72.2788 29.1333 70.9772L35.0975 60.6469C35.4525 60.032 35.7771 59.4698 36.0696 58.9533C35.0425 58.8412 34.028 58.6856 33.028 58.4883C23.937 56.6948 16.0868 51.4676 10.8787 44.2175Z" fill="url(#paint1_linear_273_4026)"/>
<path d="M68.6046 44.9189C68.756 45.1798 68.9117 45.4499 69.0729 45.7293L75.2221 56.3803C75.9736 57.6814 76.6686 58.8848 77.0692 59.8808C77.4617 60.8564 77.9559 62.5483 76.8637 64.1142C75.7577 65.7 73.9822 65.794 72.9301 65.7417C71.8647 65.6888 70.5105 65.4222 69.0557 65.1358L66.4181 64.617C64.9559 64.3294 64.0884 64.1635 63.4447 64.1192C63.1507 64.099 62.9929 64.1126 62.9152 64.1257C62.8795 64.1317 62.8585 64.1388 62.8585 64.1388L62.8487 64.1433L62.844 64.1462L62.8399 64.1495C62.8399 64.1495 62.8232 64.1642 62.8002 64.1921C62.75 64.2529 62.6593 64.3827 62.5298 64.6474C62.2463 65.227 61.9562 66.0613 61.4742 67.4714L60.6048 70.0148C60.1254 71.4179 59.6791 72.7241 59.1923 73.6732C58.7115 74.6106 57.7424 76.1012 55.816 76.2661C53.9137 76.429 52.6957 75.1551 52.047 74.3274C51.3847 73.4823 50.6901 72.2788 49.9389 70.9773L43.9744 60.6465C43.6389 60.0655 43.3306 59.5314 43.0508 59.0385C44.0411 58.9549 45.0203 58.831 45.9868 58.6684C55.1965 57.1185 63.2077 52.0599 68.6046 44.9189Z" fill="url(#paint2_linear_273_4026)"/>
<path fill-rule="evenodd" clip-rule="evenodd" d="M10.8333 30C10.8333 13.8917 23.8916 0.833313 39.9999 0.833313C56.1082 0.833313 69.1666 13.8917 69.1666 30C69.1666 31.4235 69.0644 32.8238 68.867 34.1938C68.4448 35.3154 67.9591 36.4058 67.4143 37.4606C63.0418 45.927 54.865 52.104 45.1571 53.7377C43.4817 54.0196 41.759 54.1666 40 54.1666C37.9433 54.1666 35.9359 53.9656 33.9958 53.5829C24.4882 51.7072 16.5418 45.4539 12.3546 37.0037C11.9025 36.0914 11.4943 35.1536 11.1327 34.1928C10.9353 32.8231 10.8333 31.4231 10.8333 30Z" stroke="url(#paint3_linear_273_4026)"/>
<path d="M10.8787 44.2175C10.5831 44.7176 10.2719 45.2569 9.93665 45.8378L3.85006 56.3801C3.09849 57.6814 2.40355 58.8847 2.00289 59.8808C1.61045 60.8564 1.11621 62.5483 2.20841 64.1142C3.31445 65.7 5.08986 65.794 6.14205 65.7417C7.20736 65.6888 8.56164 65.4222 10.0164 65.1358L12.654 64.617C14.1162 64.3294 14.9837 64.1635 15.6274 64.1192C15.9214 64.099 16.0792 64.1126 16.1569 64.1257C16.1926 64.1317 16.2136 64.1388 16.2136 64.1388L16.2234 64.1433L16.2322 64.1495C16.2322 64.1495 16.2489 64.1642 16.2719 64.1921C16.3221 64.2529 16.4128 64.3827 16.5423 64.6475C16.8258 65.227 17.1159 66.0613 17.5979 67.4714L18.4673 70.0147C18.9467 71.4179 19.393 72.7241 19.8798 73.6732C20.3606 74.6106 21.3297 76.1012 23.2561 76.2661C25.1584 76.429 26.3764 75.1551 27.0251 74.3274C27.6874 73.4823 28.3821 72.2788 29.1333 70.9772L35.0975 60.6469C35.4525 60.032 35.7771 59.4698 36.0696 58.9533C35.0425 58.8412 34.028 58.6856 33.028 58.4883C23.937 56.6948 16.0868 51.4676 10.8787 44.2175Z" stroke="url(#paint4_linear_273_4026)"/>
<path d="M68.6046 44.9189C68.756 45.1798 68.9117 45.4499 69.0729 45.7293L75.2221 56.3803C75.9736 57.6814 76.6686 58.8848 77.0692 59.8808C77.4617 60.8564 77.9559 62.5483 76.8637 64.1142C75.7577 65.7 73.9822 65.794 72.9301 65.7417C71.8647 65.6888 70.5105 65.4222 69.0557 65.1358L66.4181 64.617C64.9559 64.3294 64.0884 64.1635 63.4447 64.1192C63.1507 64.099 62.9929 64.1126 62.9152 64.1257C62.8795 64.1317 62.8585 64.1388 62.8585 64.1388L62.8487 64.1433L62.844 64.1462L62.8399 64.1495C62.8399 64.1495 62.8232 64.1642 62.8002 64.1921C62.75 64.2529 62.6593 64.3827 62.5298 64.6474C62.2463 65.227 61.9562 66.0613 61.4742 67.4714L60.6048 70.0148C60.1254 71.4179 59.6791 72.7241 59.1923 73.6732C58.7115 74.6106 57.7424 76.1012 55.816 76.2661C53.9137 76.429 52.6957 75.1551 52.047 74.3274C51.3847 73.4823 50.6901 72.2788 49.9389 70.9773L43.9744 60.6465C43.6389 60.0655 43.3306 59.5314 43.0508 59.0385C44.0411 58.9549 45.0203 58.831 45.9868 58.6684C55.1965 57.1185 63.2077 52.0599 68.6046 44.9189Z" stroke="url(#paint5_linear_273_4026)"/>
</g>
<g filter="url(#filter1_d_273_4026)">
<path fill-rule="evenodd" clip-rule="evenodd" d="M33.2486 15.8604C35.3569 9.15762 44.6431 9.15762 46.7514 15.8604C47.052 16.816 47.8802 17.3877 48.7332 17.3877C55.7634 17.3877 58.307 26.4334 52.9325 30.467C52.192 31.0228 51.8444 32.0522 52.1488 33.02C53.1817 36.3039 51.8569 39.3759 49.5968 41.0722C47.3249 42.7772 43.9877 43.1659 41.198 41.0722C40.478 40.5318 39.5219 40.5318 38.8019 41.0722C36.0122 43.1659 32.675 42.7772 30.4032 41.0722C28.143 39.3759 26.8182 36.3039 27.8511 33.02C28.1555 32.0522 27.808 31.0228 27.0674 30.467C21.693 26.4334 24.2366 17.3877 31.2668 17.3877C32.1198 17.3877 32.948 16.816 33.2486 15.8604Z" fill="url(#paint6_linear_273_4026)"/>
</g>
<defs>
<filter id="filter0_b_273_4026" x="-22.9564" y="-23.6667" width="124.985" height="124.447" filterUnits="userSpaceOnUse" color-interpolation-filters="sRGB">
<feFlood flood-opacity="0" result="BackgroundImageFix"/>
<feGaussianBlur in="BackgroundImageFix" stdDeviation="12"/>
<feComposite in2="SourceAlpha" operator="in" result="effect1_backgroundBlur_273_4026"/>
<feBlend mode="normal" in="SourceGraphic" in2="effect1_backgroundBlur_273_4026" result="shape"/>
</filter>
<filter id="filter1_d_273_4026" x="21.1799" y="7.83331" width="47.6402" height="47.6671" filterUnits="userSpaceOnUse" color-interpolation-filters="sRGB">
<feFlood flood-opacity="0" result="BackgroundImageFix"/>
<feColorMatrix in="SourceAlpha" type="matrix" values="0 0 0 0 0 0 0 0 0 0 0 0 0 0 0 0 0 0 127 0" result="hardAlpha"/>
<feOffset dx="5" dy="5"/>
<feGaussianBlur stdDeviation="4"/>
<feColorMatrix type="matrix" values="0 0 0 0 0.176471 0 0 0 0 0.556863 0 0 0 0 0.678431 0 0 0 0.5 0"/>
<feBlend mode="normal" in2="BackgroundImageFix" result="effect1_dropShadow_273_4026"/>
<feBlend mode="normal" in="SourceGraphic" in2="effect1_dropShadow_273_4026" result="shape"/>
</filter>
<linearGradient id="paint0_linear_273_4026" x1="1.54382" y1="76.2803" x2="78.6204" y2="1.96599" gradientUnits="userSpaceOnUse">
<stop stop-color="#0050AE"/>
<stop offset="1" stop-color="#0074FB"/>
</linearGradient>
<linearGradient id="paint1_linear_273_4026" x1="1.54382" y1="76.2803" x2="78.6204" y2="1.96599" gradientUnits="userSpaceOnUse">
<stop stop-color="#0050AE"/>
<stop offset="1" stop-color="#0074FB"/>
</linearGradient>
<linearGradient id="paint2_linear_273_4026" x1="1.54382" y1="76.2803" x2="78.6204" y2="1.96599" gradientUnits="userSpaceOnUse">
<stop stop-color="#0050AE"/>
<stop offset="1" stop-color="#0074FB"/>
</linearGradient>
<linearGradient id="paint3_linear_273_4026" x1="1.54382" y1="0.833313" x2="77.0277" y2="76.7779" gradientUnits="userSpaceOnUse">
<stop stop-color="white" stop-opacity="0.25"/>
<stop offset="1" stop-color="white" stop-opacity="0"/>
</linearGradient>
<linearGradient id="paint4_linear_273_4026" x1="1.54382" y1="0.833313" x2="77.0277" y2="76.7779" gradientUnits="userSpaceOnUse">
<stop stop-color="white" stop-opacity="0.25"/>
<stop offset="1" stop-color="white" stop-opacity="0"/>
</linearGradient>
<linearGradient id="paint5_linear_273_4026" x1="1.54382" y1="0.833313" x2="77.0277" y2="76.7779" gradientUnits="userSpaceOnUse">
<stop stop-color="white" stop-opacity="0.25"/>
<stop offset="1" stop-color="white" stop-opacity="0"/>
</linearGradient>
<linearGradient id="paint6_linear_273_4026" x1="40.2664" y1="49.2469" x2="83.9713" y2="6.44172" gradientUnits="userSpaceOnUse">
<stop stop-color="white"/>
<stop offset="1" stop-color="white" stop-opacity="0.2"/>
</linearGradient>
</defs>
</svg>
