<svg width="80" height="80" viewBox="0 0 80 80" fill="none" xmlns="http://www.w3.org/2000/svg">
<g filter="url(#filter0_b_273_3862)">
<path d="M20.2074 7.8427C21.5012 6.80767 21.7109 4.91979 20.6759 3.62601C19.6409 2.33222 17.753 2.12246 16.4592 3.15749L8.12587 9.82415C6.83209 10.8592 6.62232 12.7471 7.65735 14.0408C8.69238 15.3346 10.5803 15.5444 11.874 14.5094L20.2074 7.8427ZM63.5407 3.15749C62.2469 2.12246 60.3591 2.33222 59.324 3.62601C58.289 4.91979 58.4988 6.80767 59.7925 7.8427L68.1259 14.5094C69.4197 15.5444 71.3075 15.3346 72.3426 14.0408C73.3776 12.7471 73.1678 10.8592 71.874 9.82415L63.5407 3.15749ZM40 5.0001C19.9336 5.0001 3.66663 21.2671 3.66663 41.3334C3.66663 61.3998 19.9336 77.6668 40 77.6668C60.0663 77.6668 76.3333 61.3998 76.3333 41.3334C76.3333 21.2671 60.0663 5.0001 40 5.0001Z" fill="url(#paint0_linear_273_3862)" stroke="url(#paint1_linear_273_3862)" stroke-linecap="round"/>
<g filter="url(#filter1_d_273_3862)">
<path fill-rule="evenodd" clip-rule="evenodd" d="M42.4999 28.0001C42.4999 26.6194 41.3806 25.5001 39.9999 25.5001C38.6192 25.5001 37.4999 26.6194 37.4999 28.0001L37.4999 39.6668C37.4999 43.8089 40.8578 47.1668 44.9999 47.1668H49.9999C51.3806 47.1668 52.4999 46.0475 52.4999 44.6668C52.4999 43.286 51.3806 42.1668 49.9999 42.1668H44.9999C43.6192 42.1668 42.4999 41.0475 42.4999 39.6668L42.4999 28.0001Z" fill="url(#paint2_linear_273_3862)"/>
</g>
</g>
<defs>
<filter id="filter0_b_273_3862" x="-20.8334" y="-22" width="121.667" height="124.167" filterUnits="userSpaceOnUse" color-interpolation-filters="sRGB">
<feFlood flood-opacity="0" result="BackgroundImageFix"/>
<feGaussianBlur in="BackgroundImageFix" stdDeviation="12"/>
<feComposite in2="SourceAlpha" operator="in" result="effect1_backgroundBlur_273_3862"/>
<feBlend mode="normal" in="SourceGraphic" in2="effect1_backgroundBlur_273_3862" result="shape"/>
</filter>
<filter id="filter1_d_273_3862" x="34.4999" y="22.5001" width="31" height="37.6667" filterUnits="userSpaceOnUse" color-interpolation-filters="sRGB">
<feFlood flood-opacity="0" result="BackgroundImageFix"/>
<feColorMatrix in="SourceAlpha" type="matrix" values="0 0 0 0 0 0 0 0 0 0 0 0 0 0 0 0 0 0 127 0" result="hardAlpha"/>
<feOffset dx="5" dy="5"/>
<feGaussianBlur stdDeviation="4"/>
<feColorMatrix type="matrix" values="0 0 0 0 0.176471 0 0 0 0 0.556863 0 0 0 0 0.678431 0 0 0 0.5 0"/>
<feBlend mode="normal" in2="BackgroundImageFix" result="effect1_dropShadow_273_3862"/>
<feBlend mode="normal" in="SourceGraphic" in2="effect1_dropShadow_273_3862" result="shape"/>
</filter>
<linearGradient id="paint0_linear_273_3862" x1="4.16663" y1="77.1668" x2="79.7564" y2="7.24082" gradientUnits="userSpaceOnUse">
<stop stop-color="#0050AE"/>
<stop offset="1" stop-color="#0074FB"/>
</linearGradient>
<linearGradient id="paint1_linear_273_3862" x1="4.16663" y1="3" x2="78.3248" y2="74.5857" gradientUnits="userSpaceOnUse">
<stop stop-color="white" stop-opacity="0.25"/>
<stop offset="1" stop-color="white" stop-opacity="0"/>
</linearGradient>
<linearGradient id="paint2_linear_273_3862" x1="45.1263" y1="51.7827" x2="72.9207" y2="32.9205" gradientUnits="userSpaceOnUse">
<stop stop-color="white"/>
<stop offset="1" stop-color="white" stop-opacity="0.2"/>
</linearGradient>
</defs>
</svg>
