<svg width="30" height="30" viewBox="0 0 30 30" fill="#efefef" xmlns="http://www.w3.org/2000/svg">
<path d="M20.9378 4.45V2.5C20.9378 1.9875 20.5128 1.5625 20.0003 1.5625C19.4878 1.5625 19.0628 1.9875 19.0628 2.5V4.375H10.9378V2.5C10.9378 1.9875 10.5128 1.5625 10.0003 1.5625C9.48779 1.5625 9.06279 1.9875 9.06279 2.5V4.45C5.68779 4.7625 4.05029 6.775 3.80029 9.7625C3.77529 10.125 4.07529 10.425 4.42529 10.425H25.5753C25.9378 10.425 26.2378 10.1125 26.2003 9.7625C25.9503 6.775 24.3128 4.7625 20.9378 4.45Z">
</path>
<path d="M25 12.2998H5C4.3125 12.2998 3.75 12.8623 3.75 13.5498V21.2498C3.75 24.9998 5.625 27.4998 10 27.4998H20C24.375 27.4998 26.25 24.9998 26.25 21.2498V13.5498C26.25 12.8623 25.6875 12.2998 25 12.2998ZM11.5125 22.7623C11.3875 22.8748 11.25 22.9623 11.1 23.0248C10.95 23.0873 10.7875 23.1248 10.625 23.1248C10.4625 23.1248 10.3 23.0873 10.15 23.0248C10 22.9623 9.8625 22.8748 9.7375 22.7623C9.5125 22.5248 9.375 22.1998 9.375 21.8748C9.375 21.5498 9.5125 21.2248 9.7375 20.9873C9.8625 20.8748 10 20.7873 10.15 20.7248C10.45 20.5998 10.8 20.5998 11.1 20.7248C11.25 20.7873 11.3875 20.8748 11.5125 20.9873C11.7375 21.2248 11.875 21.5498 11.875 21.8748C11.875 22.1998 11.7375 22.5248 11.5125 22.7623ZM11.775 17.9748C11.7125 18.1248 11.625 18.2623 11.5125 18.3873C11.3875 18.4998 11.25 18.5873 11.1 18.6498C10.95 18.7123 10.7875 18.7498 10.625 18.7498C10.4625 18.7498 10.3 18.7123 10.15 18.6498C10 18.5873 9.8625 18.4998 9.7375 18.3873C9.625 18.2623 9.5375 18.1248 9.475 17.9748C9.4125 17.8248 9.375 17.6623 9.375 17.4998C9.375 17.3373 9.4125 17.1748 9.475 17.0248C9.5375 16.8748 9.625 16.7373 9.7375 16.6123C9.8625 16.4998 10 16.4123 10.15 16.3498C10.45 16.2248 10.8 16.2248 11.1 16.3498C11.25 16.4123 11.3875 16.4998 11.5125 16.6123C11.625 16.7373 11.7125 16.8748 11.775 17.0248C11.8375 17.1748 11.875 17.3373 11.875 17.4998C11.875 17.6623 11.8375 17.8248 11.775 17.9748ZM15.8875 18.3873C15.7625 18.4998 15.625 18.5873 15.475 18.6498C15.325 18.7123 15.1625 18.7498 15 18.7498C14.8375 18.7498 14.675 18.7123 14.525 18.6498C14.375 18.5873 14.2375 18.4998 14.1125 18.3873C13.8875 18.1498 13.75 17.8248 13.75 17.4998C13.75 17.1748 13.8875 16.8498 14.1125 16.6123C14.2375 16.4998 14.375 16.4123 14.525 16.3498C14.825 16.2123 15.175 16.2123 15.475 16.3498C15.625 16.4123 15.7625 16.4998 15.8875 16.6123C16.1125 16.8498 16.25 17.1748 16.25 17.4998C16.25 17.8248 16.1125 18.1498 15.8875 18.3873Z">
</path>
</svg>