<svg width="1452" height="512" viewBox="0 0 1452 512" fill="none" xmlns="http://www.w3.org/2000/svg">
<path d="M876.828 404.133L860.574 394.676V413.442L876.828 404.133Z" fill="#efefef"/>
<path d="M1134.82 404.133L1118.57 394.676V413.442L1134.82 404.133Z" fill="#efefef"/>
<path fill-rule="evenodd" clip-rule="evenodd" d="M1263.08 275.135H1406.41L1439.36 294.344L1445.27 297.743V353.893H1301.94L1267.96 333.945L1263.23 331.285V275.135H1263.08ZM1305.64 328.921H1297.81V307.643L1292.93 308.678L1291.45 302.619L1299.87 300.255H1305.64V328.921ZM1343.17 313.849C1343.17 323.158 1338.44 329.512 1329.87 329.512C1326.18 329.512 1322.78 328.33 1319.82 326.114L1323.52 320.646C1325.29 322.124 1327.36 322.863 1329.72 322.863C1332.97 322.863 1334.75 320.646 1335.19 316.952C1333.56 318.43 1331.35 319.317 1329.13 319.317C1323.52 319.317 1319.53 315.918 1319.53 310.303C1319.53 303.949 1324.4 299.96 1331.05 299.96C1334.3 299.664 1337.55 300.994 1339.92 303.21C1341.84 305.279 1343.17 308.53 1343.17 313.849ZM1327.21 310.007C1327.21 312.076 1328.84 313.701 1330.9 313.701C1331.05 313.701 1331.2 313.701 1331.2 313.701C1333.27 313.849 1335.04 312.372 1335.19 310.303C1335.19 310.155 1335.19 310.007 1335.19 309.86C1335.19 307.791 1333.56 306.018 1331.5 306.018C1331.35 306.018 1331.2 306.018 1331.2 306.018C1329.13 305.87 1327.36 307.495 1327.21 309.564C1327.21 309.712 1327.21 309.86 1327.21 310.007ZM1377.89 328.921H1355.29V323.011L1366.07 314.884C1368.73 312.815 1369.77 311.485 1369.77 309.712C1369.77 308.086 1368.58 306.757 1366.96 306.757C1366.81 306.757 1366.66 306.757 1366.52 306.757C1364.59 306.757 1363.12 307.939 1360.9 310.451L1355.58 306.018C1358.68 302.028 1361.64 299.96 1367.25 299.96C1373.46 299.96 1377.89 303.654 1377.89 309.121C1377.89 313.701 1375.53 316.066 1371.24 319.021L1366.37 322.42H1378.19L1377.89 328.921ZM1417.2 314.736C1417.2 322.715 1412.03 329.512 1403.9 329.512C1395.77 329.512 1390.6 322.863 1390.6 314.736C1390.6 306.609 1395.77 299.96 1403.9 299.96C1412.03 299.96 1417.2 306.609 1417.2 314.736ZM1398.58 314.736C1398.58 319.317 1400.65 322.567 1403.9 322.567C1407.15 322.567 1409.07 319.317 1409.07 314.736C1409.07 310.155 1406.85 306.904 1403.75 306.904C1400.65 306.904 1398.58 310.007 1398.58 314.736Z" fill="#f4f7fe"/>
<path d="M532.243 245.287C544.065 245.287 551.157 239.672 558.102 226.226L587.507 169.189C587.655 168.894 587.507 168.45 587.211 168.303C587.064 168.303 587.064 168.155 586.916 168.155H565.342C565.047 168.155 564.899 168.303 564.751 168.45L549.088 202.584C548.941 202.879 548.497 203.027 548.202 202.879C548.054 202.879 547.906 202.731 547.906 202.584L531.357 168.45C531.209 168.303 531.061 168.155 530.766 168.155H508.601C508.306 168.155 508.01 168.45 508.01 168.746C508.01 168.894 508.01 169.041 508.158 169.041L537.415 223.714C537.563 224.009 537.563 224.305 537.267 224.453C535.642 226.226 533.278 227.408 530.914 227.408C528.106 227.408 525.299 226.669 522.934 225.191C522.639 225.044 522.196 225.044 522.048 225.487L514.512 239.524C514.364 239.82 514.512 240.263 514.807 240.411C519.831 243.662 526.037 245.287 532.243 245.287ZM603.465 243.514C603.465 243.81 603.761 244.105 604.056 244.105H624.004C624.3 244.105 624.596 243.81 624.743 243.514V215.882C624.743 215.587 625.039 215.291 625.334 215.291H651.193C651.488 215.291 651.784 215.587 651.784 215.882V243.366C651.784 243.662 652.08 243.957 652.375 243.957H672.323C672.619 243.957 672.914 243.662 672.914 243.366V168.746C672.914 168.45 672.619 168.155 672.323 168.155H652.375C652.08 168.155 651.784 168.45 651.784 168.746V195.934C651.784 196.23 651.488 196.525 651.193 196.525H625.187C624.891 196.525 624.596 196.23 624.596 195.934V168.894C624.596 168.598 624.3 168.303 624.004 168.303H604.056C603.761 168.303 603.465 168.598 603.465 168.894V243.514ZM695.374 243.514C695.374 243.81 695.67 244.105 695.965 244.105H714.731C714.879 244.105 715.174 243.957 715.322 243.81L743.545 203.027C743.693 202.731 744.136 202.731 744.432 202.879C744.579 203.027 744.727 203.175 744.727 203.322V243.366C744.727 243.662 745.023 243.957 745.318 243.957H764.971C765.266 243.957 765.562 243.662 765.562 243.366V168.746C765.562 168.45 765.266 168.155 764.971 168.155H746.205C746.057 168.155 745.762 168.303 745.614 168.45L717.391 209.233C717.243 209.529 716.8 209.528 716.504 209.381C716.357 209.233 716.209 209.085 716.209 208.937V168.894C716.209 168.598 715.913 168.303 715.618 168.303H695.965C695.67 168.303 695.374 168.598 695.374 168.894V243.514ZM788.17 243.514C788.17 243.81 788.465 244.105 788.761 244.105H827.622C845.945 244.105 856.584 236.126 856.584 223.123C856.584 213.223 851.412 208.051 842.99 204.948C842.694 204.8 842.546 204.357 842.694 203.913C842.694 203.766 842.842 203.618 842.99 203.618C848.9 200.515 853.185 195.491 853.185 187.364C853.333 182.636 851.56 178.203 848.309 174.952C843.876 170.519 837.079 168.155 827.475 168.155H788.761C788.465 168.155 788.17 168.45 788.17 168.746V243.514ZM809.447 227.26C809.152 227.26 808.856 226.965 808.856 226.669V213.961C808.856 213.666 809.152 213.37 809.447 213.37H824.963C832.055 213.37 835.306 216.03 835.306 220.167C835.306 224.896 831.612 227.408 825.11 227.408H809.447V227.26ZM809.447 198.594C809.152 198.594 808.856 198.298 808.856 198.003V185.886C808.856 185.591 809.152 185.295 809.447 185.295H822.598C828.952 185.295 832.203 187.66 832.203 191.797C832.203 196.525 828.657 198.594 822.155 198.594H809.447ZM875.054 243.514C875.054 243.81 875.35 244.105 875.645 244.105H936.524C936.819 244.105 937.115 243.81 937.263 243.514V226.965C937.263 226.669 936.967 226.374 936.524 226.374H896.776C896.48 226.374 896.185 226.078 896.037 225.782V214.996C896.037 214.7 896.332 214.405 896.776 214.405H932.239C932.534 214.405 932.83 214.109 932.978 213.814V198.594C932.978 198.298 932.682 198.003 932.239 198.003H896.776C896.48 198.003 896.185 197.707 896.037 197.412V187.216C896.037 186.921 896.332 186.625 896.628 186.625H935.933C936.228 186.625 936.524 186.33 936.672 186.034V169.485C936.672 169.189 936.376 168.894 936.081 168.894H875.793C875.498 168.894 875.202 169.189 875.202 169.485V243.514H875.054ZM956.62 243.514C956.62 243.81 956.915 244.105 957.211 244.105H977.159C977.454 244.105 977.75 243.81 977.75 243.514V223.123C977.75 222.827 978.045 222.532 978.341 222.532H988.241C1007.3 222.532 1021.19 213.075 1021.19 195.195C1021.19 178.203 1008.78 168.303 989.423 168.303H957.211C956.915 168.303 956.62 168.598 956.62 168.894V243.514ZM978.489 205.982C978.193 205.982 977.898 205.687 977.898 205.391V186.625C977.898 186.33 978.193 186.034 978.489 186.034H987.798C995.482 186.034 1000.06 189.58 1000.06 196.082C1000.06 202.288 995.482 206.13 987.946 206.13H978.489V205.982ZM1075.86 245.731C1092.56 245.731 1102.17 238.786 1109.41 229.181C1109.55 228.886 1109.55 228.442 1109.26 228.294L1094.34 217.803C1094.04 217.655 1093.6 217.655 1093.45 217.951C1089.02 223.27 1084.29 226.669 1076.6 226.669C1065.82 226.669 1058.28 217.803 1058.28 206.425C1058.28 195.048 1065.82 186.182 1076.6 186.182C1083.7 186.182 1088.72 189.285 1093.01 194.457C1093.3 194.752 1093.6 194.752 1093.89 194.604L1108.37 183.374C1108.67 183.227 1108.67 182.783 1108.52 182.488C1101.72 173.474 1092.12 166.973 1076.75 166.973C1053.55 166.973 1036.41 184.261 1036.41 206.425C1036.26 229.181 1053.85 245.731 1075.86 245.731ZM1127.58 243.514C1127.58 243.81 1127.88 244.105 1128.17 244.105H1146.94C1147.09 244.105 1147.38 243.957 1147.53 243.81L1175.75 203.027C1175.9 202.731 1176.34 202.731 1176.64 202.879C1176.79 203.027 1176.93 203.175 1176.93 203.322V243.366C1176.93 243.662 1177.23 243.957 1177.53 243.957H1197.18C1197.47 243.957 1197.77 243.662 1197.77 243.366V168.746C1197.77 168.45 1197.47 168.155 1197.18 168.155H1178.41C1178.26 168.155 1177.97 168.303 1177.82 168.45L1149.6 209.233C1149.45 209.529 1149.01 209.528 1148.71 209.381C1148.56 209.233 1148.42 209.085 1148.42 208.937V168.894C1148.42 168.598 1148.12 168.303 1147.83 168.303H1128.17C1127.88 168.303 1127.58 168.598 1127.58 168.894V243.514ZM1238.85 243.514C1238.85 243.81 1239.14 244.105 1239.44 244.105H1259.39C1259.68 244.105 1259.98 243.81 1259.98 243.514V187.364C1259.98 187.068 1260.27 186.773 1260.72 186.773H1282.44C1282.73 186.773 1283.03 186.477 1283.18 186.182V169.041C1283.18 168.746 1282.88 168.45 1282.59 168.45H1216.83C1216.54 168.45 1216.24 168.746 1216.24 169.041V186.182C1216.24 186.477 1216.54 186.773 1216.83 186.773H1238.26C1238.55 186.773 1238.85 187.068 1238.85 187.364V243.514ZM1301.06 243.514C1301.06 243.81 1301.35 244.105 1301.65 244.105H1362.53C1362.82 244.105 1363.12 243.81 1363.12 243.514V226.965C1363.12 226.669 1362.82 226.374 1362.53 226.374H1322.63C1322.33 226.374 1322.04 226.078 1322.04 225.782V214.996C1322.04 214.7 1322.33 214.405 1322.63 214.405H1358.09C1358.39 214.405 1358.68 214.109 1358.68 213.814V198.594C1358.68 198.298 1358.39 198.003 1358.09 198.003H1322.63C1322.33 198.003 1322.04 197.707 1322.04 197.412V187.216C1322.04 186.921 1322.33 186.625 1322.63 186.625H1361.93C1362.23 186.625 1362.53 186.33 1362.53 186.034V169.485C1362.53 169.189 1362.23 168.894 1361.93 168.894H1301.79C1301.5 168.894 1301.2 169.189 1301.2 169.485L1301.06 243.514ZM1401.39 243.514C1401.39 243.81 1401.68 244.105 1401.98 244.105H1421.93C1422.22 244.105 1422.52 243.81 1422.52 243.514V187.364C1422.52 187.068 1422.81 186.773 1423.26 186.773H1444.98C1445.27 186.773 1445.57 186.477 1445.57 186.182V169.041C1445.57 168.746 1445.27 168.45 1444.98 168.45H1379.08C1378.78 168.45 1378.48 168.746 1378.48 169.041V186.182C1378.48 186.477 1378.78 186.773 1379.08 186.773H1400.8C1401.09 186.773 1401.39 187.068 1401.39 187.364V243.514ZM514.216 351.972C514.216 352.268 514.512 352.563 514.807 352.563H534.903C535.199 352.563 535.494 352.268 535.494 351.972V333.206C535.494 333.059 535.494 332.911 535.642 332.763L542.735 324.932C543.03 324.636 543.473 324.636 543.621 324.932C543.621 324.932 543.621 324.932 543.769 325.079L562.387 352.268C562.535 352.416 562.683 352.563 562.978 352.563H586.916C587.211 352.563 587.507 352.268 587.507 351.972C587.507 351.825 587.507 351.677 587.359 351.529L558.398 309.712C558.25 309.417 558.25 309.121 558.398 308.973L586.029 277.795C586.325 277.5 586.177 277.056 586.029 276.909C585.882 276.761 585.734 276.761 585.586 276.761H562.239C562.092 276.761 561.796 276.909 561.796 277.056L536.824 306.314C536.529 306.609 536.233 306.609 535.938 306.461C535.79 306.313 535.642 306.166 535.642 306.018V277.647C535.642 277.352 535.347 277.056 535.051 277.056H515.103C514.807 277.056 514.512 277.352 514.512 277.647L514.216 351.972ZM641.293 354.189C664.935 354.189 682.667 336.457 682.667 314.736C682.667 292.719 665.23 275.283 641.588 275.283C617.946 275.283 600.215 293.015 600.215 314.736C600.215 336.457 617.798 354.189 641.293 354.189ZM641.441 335.275C629.767 335.275 621.936 325.671 621.936 314.736C621.936 303.506 629.62 294.197 641.293 294.197C652.966 294.197 660.945 303.802 660.945 314.736C660.945 325.671 653.262 335.275 641.441 335.275ZM739.26 354.189C755.957 354.189 765.562 347.096 772.802 337.639C772.95 337.344 772.95 336.901 772.654 336.753L757.73 326.262C757.435 326.114 756.992 326.114 756.844 326.409C752.411 331.729 747.682 335.127 739.999 335.127C729.36 335.127 721.676 326.262 721.676 314.884C721.676 303.506 729.212 294.64 739.999 294.64C747.091 294.64 752.115 297.743 756.4 302.915C756.696 303.21 756.992 303.21 757.287 303.063L771.768 291.833C772.063 291.685 772.063 291.242 771.916 290.946C765.119 281.933 755.514 275.431 740.146 275.431C716.948 275.431 699.807 292.719 699.807 314.884C699.807 337.639 717.391 354.189 739.26 354.189ZM790.977 351.972C790.977 352.268 791.273 352.563 791.568 352.563H824.815C843.581 352.563 855.55 342.663 855.55 326.262C855.55 309.121 842.103 300.403 823.781 300.403H812.846C812.551 300.403 812.255 300.107 812.255 299.812V277.204C812.255 276.909 811.959 276.613 811.664 276.613H791.864C791.568 276.613 791.273 276.909 791.273 277.204L790.977 351.972ZM812.846 334.98C812.551 334.98 812.255 334.684 812.255 334.389V317.691C812.255 317.396 812.551 317.1 812.846 317.1H823.337C830.282 317.1 834.42 320.647 834.42 325.818C834.42 331.729 830.282 334.98 823.337 334.98H812.846ZM864.563 351.972C864.563 352.268 864.859 352.563 865.154 352.563H885.102C885.398 352.563 885.693 352.268 885.693 351.972V277.352C885.693 277.056 885.398 276.761 885.102 276.761H865.302C865.006 276.761 864.711 277.056 864.711 277.352L864.563 351.972ZM908.006 351.972C908.006 352.268 908.301 352.563 908.744 352.563H928.693C928.988 352.563 929.284 352.268 929.284 351.972V295.822C929.284 295.527 929.579 295.231 930.022 295.231H962.826C963.121 295.231 963.417 294.936 963.417 294.64V277.5C963.417 277.204 963.121 276.909 962.826 276.909H909.04C908.744 276.909 908.449 277.204 908.301 277.5L908.006 351.972ZM980.853 351.972C980.853 352.268 981.148 352.563 981.592 352.563H1000.36C1000.51 352.563 1000.8 352.416 1000.95 352.268L1029.17 311.485C1029.32 311.19 1029.76 311.19 1030.06 311.337C1030.21 311.485 1030.35 311.633 1030.35 311.929V351.972C1030.35 352.268 1030.65 352.563 1031.09 352.563H1050.6C1050.89 352.563 1051.19 352.268 1051.34 351.972V277.352C1051.34 277.056 1051.04 276.761 1050.6 276.761H1031.98C1031.83 276.761 1031.54 276.909 1031.39 277.056L1003.17 317.691C1003.02 317.987 1002.57 317.987 1002.28 317.839C1002.13 317.691 1001.98 317.544 1001.98 317.248V277.352C1001.98 277.056 1001.69 276.761 1001.24 276.761H981.592C981.296 276.761 981.001 277.056 980.853 277.352V351.972ZM1073.5 351.972C1073.5 352.268 1073.8 352.563 1074.24 352.563H1094.19C1094.48 352.563 1094.78 352.268 1094.78 351.972V324.488C1094.78 324.193 1095.07 323.897 1095.52 323.897H1121.52C1121.82 323.897 1122.11 324.193 1122.26 324.488V351.972C1122.26 352.268 1122.56 352.563 1122.85 352.563H1142.8C1143.1 352.563 1143.39 352.268 1143.54 351.972V277.352C1143.54 277.056 1143.24 276.761 1142.8 276.761H1122.85C1122.56 276.761 1122.26 277.056 1122.26 277.352V304.54C1122.26 304.836 1121.97 305.131 1121.52 305.131H1095.67C1095.37 305.131 1095.07 304.836 1094.93 304.54V277.352C1094.93 277.056 1094.63 276.761 1094.34 276.761H1074.24C1073.94 276.761 1073.65 277.056 1073.5 277.352V351.972ZM1159.65 351.825C1159.5 352.12 1159.65 352.563 1159.94 352.711C1160.09 352.711 1160.09 352.711 1160.24 352.711H1181.07C1181.37 352.711 1181.52 352.563 1181.66 352.268L1186.84 339.56C1186.98 339.265 1187.13 339.117 1187.43 339.117H1216.09C1216.39 339.117 1216.54 339.265 1216.68 339.56L1221.86 352.268C1222 352.563 1222.15 352.711 1222.45 352.711H1244.17C1244.46 352.711 1244.76 352.416 1244.76 352.12C1244.76 351.972 1244.76 351.972 1244.76 351.825L1212.69 276.613C1212.55 276.318 1212.4 276.17 1212.1 276.17H1192.45C1192.15 276.17 1192.01 276.318 1191.86 276.613L1159.65 351.825ZM1194.22 322.715C1193.93 322.715 1193.63 322.42 1193.48 322.124C1193.48 321.976 1193.48 321.976 1193.48 321.829L1201.17 302.619C1201.32 302.324 1201.61 302.176 1202.05 302.176C1202.2 302.176 1202.35 302.324 1202.5 302.619L1210.03 321.829C1210.18 322.124 1210.03 322.567 1209.74 322.715C1209.59 322.715 1209.59 322.715 1209.44 322.715H1194.22Z" fill="#f4f7fe"/>
<path d="M519.92 418V391.92H510.16V390H531.76V391.92H522V418H519.92Z" fill="#efefef"/>
<path d="M541.457 418V390H561.377V391.92H543.537V402.92H559.577V404.84H543.537V416.08H561.577V418H541.457Z" fill="#efefef"/>
<path d="M569.494 418L580.654 403.72L569.894 390H572.374L581.934 402.32L591.454 390H593.894L583.174 403.68L594.294 418H591.814L581.854 405.08L571.934 418H569.494Z" fill="#efefef"/>
<path d="M603.841 418V390H605.921V402.96H623.841V390H625.921V418H623.841V404.88H605.921V418H603.841Z" fill="#efefef"/>
<path d="M660.552 414.2C657.912 417.054 654.525 418.48 650.392 418.48C646.259 418.48 642.885 417.067 640.272 414.24C637.659 411.387 636.352 407.974 636.352 404C636.352 400.054 637.672 396.654 640.312 393.8C642.952 390.947 646.339 389.52 650.472 389.52C654.605 389.52 657.979 390.947 660.592 393.8C663.205 396.627 664.512 400.027 664.512 404C664.512 407.947 663.192 411.347 660.552 414.2ZM641.912 412.92C644.205 415.374 647.059 416.6 650.472 416.6C653.885 416.6 656.712 415.387 658.952 412.96C661.219 410.534 662.352 407.547 662.352 404C662.352 400.507 661.205 397.534 658.912 395.08C656.645 392.627 653.805 391.4 650.392 391.4C646.979 391.4 644.139 392.614 641.872 395.04C639.632 397.467 638.512 400.454 638.512 404C638.512 407.494 639.645 410.467 641.912 412.92Z" fill="#efefef"/>
<path d="M674.136 418.28C672.963 418.28 671.843 418.054 670.776 417.6L671.416 415.88C672.056 416.2 672.95 416.36 674.096 416.36C674.47 416.36 674.803 416.32 675.096 416.24C675.416 416.16 675.79 415.96 676.216 415.64C676.67 415.294 677.07 414.84 677.416 414.28C677.763 413.72 678.123 412.92 678.496 411.88C678.87 410.814 679.176 409.56 679.416 408.12C679.656 406.68 679.856 404.88 680.016 402.72C680.176 400.534 680.256 398.08 680.256 395.36V390H697.416V418H695.336V391.92H682.256V395.44C682.256 399.36 682.096 402.747 681.776 405.6C681.456 408.427 681.056 410.654 680.576 412.28C680.096 413.88 679.47 415.147 678.696 416.08C677.95 417.014 677.23 417.614 676.536 417.88C675.843 418.147 675.043 418.28 674.136 418.28Z" fill="#efefef"/>
<path d="M732.038 414.2C729.398 417.054 726.011 418.48 721.878 418.48C717.744 418.48 714.371 417.067 711.758 414.24C709.144 411.387 707.838 407.974 707.838 404C707.838 400.054 709.158 396.654 711.798 393.8C714.438 390.947 717.824 389.52 721.958 389.52C726.091 389.52 729.464 390.947 732.078 393.8C734.691 396.627 735.998 400.027 735.998 404C735.998 407.947 734.678 411.347 732.038 414.2ZM713.398 412.92C715.691 415.374 718.544 416.6 721.958 416.6C725.371 416.6 728.198 415.387 730.438 412.96C732.704 410.534 733.838 407.547 733.838 404C733.838 400.507 732.691 397.534 730.398 395.08C728.131 392.627 725.291 391.4 721.878 391.4C718.464 391.4 715.624 392.614 713.358 395.04C711.118 397.467 709.998 400.454 709.998 404C709.998 407.494 711.131 410.467 713.398 412.92Z" fill="#efefef"/>
<path d="M746.422 418V390H763.902V391.92H748.502V418H746.422Z" fill="#efefef"/>
<path d="M773.376 418V390H775.456V415L793.656 390H795.696V418H793.616V393L775.456 418H773.376Z" fill="#efefef"/>
<path d="M807.361 418V390H809.441V415L827.641 390H829.681V418H827.601V393L809.441 418H807.361Z" fill="#efefef"/>
<path d="M898.995 424.4V416.08H901.995C903.435 414.08 904.541 411.32 905.315 407.8C906.088 404.254 906.475 400.294 906.475 395.92V390H923.635V416.08H927.435L927.035 424.4H925.275V418H901.155L900.755 424.4H898.995ZM904.395 416.08H921.555V391.92H908.515V397.44C908.515 401.227 908.141 404.814 907.395 408.2C906.675 411.587 905.675 414.214 904.395 416.08Z" fill="#efefef"/>
<path d="M936.154 418V390H938.234V415L956.434 390H958.474V418H956.394V393L938.234 418H936.154Z" fill="#efefef"/>
<path d="M978.979 418.48C974.712 418.48 970.912 416.987 967.579 414L968.939 412.44C970.512 413.88 972.085 414.934 973.659 415.6C975.259 416.267 977.059 416.6 979.059 416.6C981.139 416.6 982.859 416.054 984.219 414.96C985.605 413.84 986.299 412.387 986.299 410.6C986.299 408.787 985.565 407.374 984.099 406.36C982.659 405.32 980.632 404.8 978.019 404.8H974.979V402.96H978.059C980.245 402.96 982.032 402.44 983.419 401.4C984.832 400.334 985.539 398.88 985.539 397.04C985.539 395.414 984.885 394.08 983.579 393.04C982.272 391.974 980.605 391.44 978.579 391.44C975.512 391.44 972.685 392.494 970.099 394.6L968.859 393C971.712 390.707 974.979 389.56 978.659 389.56C981.325 389.56 983.499 390.267 985.179 391.68C986.859 393.067 987.699 394.854 987.699 397.04C987.699 400.267 985.925 402.48 982.379 403.68C984.219 404.214 985.685 405.067 986.779 406.24C987.899 407.387 988.459 408.854 988.459 410.64C988.459 412.827 987.565 414.68 985.779 416.2C983.992 417.72 981.725 418.48 978.979 418.48Z" fill="#efefef"/>
<path d="M996.099 418L1009.14 389.8H1011.14L1024.18 418H1021.9L1018.34 410.16H1001.82L998.259 418H996.099ZM1002.7 408.28H1017.46L1010.1 392.08L1002.7 408.28Z" fill="#efefef"/>
<path d="M1033.46 418V390H1035.54V415L1053.74 390H1055.78V418H1053.7V393L1035.54 418H1033.46ZM1048.22 386.4C1047.23 387.254 1046.05 387.68 1044.66 387.68C1043.27 387.68 1042.09 387.254 1041.1 386.4C1040.11 385.52 1039.5 384.414 1039.26 383.08L1040.9 382.72C1041.41 384.667 1042.66 385.64 1044.66 385.64C1046.66 385.64 1047.91 384.667 1048.42 382.72L1050.06 383.08C1049.82 384.414 1049.21 385.52 1048.22 386.4Z" fill="#efefef"/>
<path d="M1067.45 418V390H1069.53V402.96H1087.45V390H1089.53V418H1087.45V404.88H1069.53V418H1067.45Z" fill="#efefef"/>
<path d="M1162.6 418V390H1164.68V415L1182.88 390H1184.92V418H1182.84V393L1164.68 418H1162.6Z" fill="#efefef"/>
<path d="M1209.27 418.48C1205.3 418.48 1201.98 417.094 1199.31 414.32C1196.67 411.52 1195.35 408.08 1195.35 404C1195.35 400 1196.68 396.587 1199.35 393.76C1202.02 390.934 1205.35 389.52 1209.35 389.52C1211.64 389.52 1213.59 389.907 1215.19 390.68C1216.82 391.454 1218.46 392.6 1220.11 394.12L1218.75 395.52C1215.92 392.774 1212.78 391.4 1209.31 391.4C1205.95 391.4 1203.14 392.614 1200.87 395.04C1198.63 397.44 1197.51 400.427 1197.51 404C1197.51 407.547 1198.64 410.534 1200.91 412.96C1203.2 415.387 1206.02 416.6 1209.35 416.6C1211.3 416.6 1213.02 416.24 1214.51 415.52C1216 414.8 1217.5 413.707 1218.99 412.24L1220.39 413.6C1218.76 415.2 1217.08 416.414 1215.35 417.24C1213.62 418.067 1211.59 418.48 1209.27 418.48Z" fill="#efefef"/>
<path d="M1229.48 418V390H1231.56V408.4L1249.4 390H1252.24L1240 402.36L1252.76 418H1250.04L1238.52 403.84L1231.56 410.88V418H1229.48Z" fill="#efefef"/>
<path d="M1265.35 418.48C1263.75 418.48 1262.26 418.16 1260.87 417.52L1261.67 415.72C1262.77 416.254 1263.99 416.52 1265.35 416.52C1267.94 416.52 1270.05 414.894 1271.67 411.64L1259.03 390H1261.47L1272.71 409.48L1282.31 390H1284.59L1273.47 412.32C1271.42 416.427 1268.71 418.48 1265.35 418.48Z" fill="#efefef"/>
<path d="M1306.54 418.48C1302.56 418.48 1299.24 417.094 1296.58 414.32C1293.94 411.52 1292.62 408.08 1292.62 404C1292.62 400 1293.95 396.587 1296.62 393.76C1299.28 390.934 1302.62 389.52 1306.62 389.52C1308.91 389.52 1310.86 389.907 1312.46 390.68C1314.08 391.454 1315.72 392.6 1317.38 394.12L1316.02 395.52C1313.19 392.774 1310.04 391.4 1306.58 391.4C1303.22 391.4 1300.4 392.614 1298.14 395.04C1295.9 397.44 1294.78 400.427 1294.78 404C1294.78 407.547 1295.91 410.534 1298.18 412.96C1300.47 415.387 1303.28 416.6 1306.62 416.6C1308.56 416.6 1310.28 416.24 1311.78 415.52C1313.27 414.8 1314.76 413.707 1316.26 412.24L1317.66 413.6C1316.03 415.2 1314.35 416.414 1312.62 417.24C1310.88 418.067 1308.86 418.48 1306.54 418.48Z" fill="#efefef"/>
<path d="M1339.43 418.48C1335.46 418.48 1332.14 417.094 1329.47 414.32C1326.83 411.52 1325.51 408.08 1325.51 404C1325.51 400 1326.84 396.587 1329.51 393.76C1332.18 390.934 1335.51 389.52 1339.51 389.52C1341.8 389.52 1343.75 389.907 1345.35 390.68C1346.98 391.454 1348.62 392.6 1350.27 394.12L1348.91 395.52C1346.08 392.774 1342.94 391.4 1339.47 391.4C1336.11 391.4 1333.3 392.614 1331.03 395.04C1328.79 397.44 1327.67 400.427 1327.67 404C1327.67 407.547 1328.8 410.534 1331.07 412.96C1333.36 415.387 1336.18 416.6 1339.51 416.6C1341.46 416.6 1343.18 416.24 1344.67 415.52C1346.16 414.8 1347.66 413.707 1349.15 412.24L1350.55 413.6C1348.92 415.2 1347.24 416.414 1345.51 417.24C1343.78 418.067 1341.75 418.48 1339.43 418.48Z" fill="#efefef"/>
<path d="M1367.4 418V391.92H1357.64V390H1379.24V391.92H1369.48V418H1367.4Z" fill="#efefef"/>
<path d="M1388.94 418V390H1400.5C1403.24 390 1405.44 390.64 1407.1 391.92C1408.75 393.174 1409.58 394.854 1409.58 396.96C1409.58 400.107 1407.99 402.32 1404.82 403.6C1409.03 404.694 1411.14 406.947 1411.14 410.36C1411.14 412.68 1410.22 414.534 1408.38 415.92C1406.56 417.307 1404.14 418 1401.1 418H1388.94ZM1391.02 416.08H1401.18C1403.58 416.08 1405.48 415.56 1406.9 414.52C1408.31 413.48 1409.02 412.067 1409.02 410.28C1409.02 408.547 1408.28 407.214 1406.82 406.28C1405.35 405.32 1403.24 404.84 1400.5 404.84H1391.02V416.08ZM1391.02 402.92H1400.26C1402.42 402.92 1404.15 402.414 1405.46 401.4C1406.79 400.387 1407.46 398.947 1407.46 397.08C1407.46 395.507 1406.84 394.254 1405.62 393.32C1404.39 392.387 1402.67 391.92 1400.46 391.92H1391.02V402.92Z" fill="#efefef"/>
<path d="M1444.12 414.2C1441.48 417.054 1438.1 418.48 1433.96 418.48C1429.83 418.48 1426.46 417.067 1423.84 414.24C1421.23 411.387 1419.92 407.974 1419.92 404C1419.92 400.054 1421.24 396.654 1423.88 393.8C1426.52 390.947 1429.91 389.52 1434.04 389.52C1438.18 389.52 1441.55 390.947 1444.16 393.8C1446.78 396.627 1448.08 400.027 1448.08 404C1448.08 407.947 1446.76 411.347 1444.12 414.2ZM1425.48 412.92C1427.78 415.374 1430.63 416.6 1434.04 416.6C1437.46 416.6 1440.28 415.387 1442.52 412.96C1444.79 410.534 1445.92 407.547 1445.92 404C1445.92 400.507 1444.78 397.534 1442.48 395.08C1440.22 392.627 1437.38 391.4 1433.96 391.4C1430.55 391.4 1427.71 392.614 1425.44 395.04C1423.2 397.467 1422.08 400.454 1422.08 404C1422.08 407.494 1423.22 410.467 1425.48 412.92Z" fill="#efefef"/>
<path d="M512.16 131V103H522.32C525.44 103 527.947 103.774 529.84 105.32C531.76 106.84 532.72 108.947 532.72 111.64C532.72 114.467 531.667 116.667 529.56 118.24C527.48 119.787 524.893 120.56 521.8 120.56H514.24V131H512.16ZM514.24 118.64H521.92C524.533 118.64 526.64 118.014 528.24 116.76C529.84 115.48 530.64 113.787 530.64 111.68C530.64 109.52 529.867 107.854 528.32 106.68C526.8 105.507 524.747 104.92 522.16 104.92H514.24V118.64Z" fill="#efefef"/>
<path d="M568.639 127.2C565.999 130.054 562.612 131.48 558.479 131.48C554.345 131.48 550.972 130.067 548.359 127.24C545.745 124.387 544.439 120.974 544.439 117C544.439 113.054 545.759 109.654 548.399 106.8C551.039 103.947 554.425 102.52 558.559 102.52C562.692 102.52 566.065 103.947 568.679 106.8C571.292 109.627 572.599 113.027 572.599 117C572.599 120.947 571.279 124.347 568.639 127.2ZM549.999 125.92C552.292 128.374 555.145 129.6 558.559 129.6C561.972 129.6 564.799 128.387 567.039 125.96C569.305 123.534 570.439 120.547 570.439 117C570.439 113.507 569.292 110.534 566.999 108.08C564.732 105.627 561.892 104.4 558.479 104.4C555.065 104.4 552.225 105.614 549.959 108.04C547.719 110.467 546.599 113.454 546.599 117C546.599 120.494 547.732 123.467 549.999 125.92Z" fill="#efefef"/>
<path d="M599.143 131.48C595.17 131.48 591.85 130.094 589.183 127.32C586.543 124.52 585.223 121.08 585.223 117C585.223 113 586.556 109.587 589.223 106.76C591.89 103.934 595.223 102.52 599.223 102.52C601.516 102.52 603.463 102.907 605.063 103.68C606.69 104.454 608.33 105.6 609.983 107.12L608.623 108.52C605.796 105.774 602.65 104.4 599.183 104.4C595.823 104.4 593.01 105.614 590.743 108.04C588.503 110.44 587.383 113.427 587.383 117C587.383 120.547 588.516 123.534 590.783 125.96C593.076 128.387 595.89 129.6 599.223 129.6C601.17 129.6 602.89 129.24 604.383 128.52C605.876 127.8 607.37 126.707 608.863 125.24L610.263 126.6C608.636 128.2 606.956 129.414 605.223 130.24C603.49 131.067 601.463 131.48 599.143 131.48Z" fill="#efefef"/>
<path d="M635.474 131.48C631.501 131.48 628.181 130.094 625.514 127.32C622.874 124.52 621.554 121.08 621.554 117C621.554 113 622.888 109.587 625.554 106.76C628.221 103.934 631.554 102.52 635.554 102.52C637.848 102.52 639.794 102.907 641.394 103.68C643.021 104.454 644.661 105.6 646.314 107.12L644.954 108.52C642.128 105.774 638.981 104.4 635.514 104.4C632.154 104.4 629.341 105.614 627.074 108.04C624.834 110.44 623.714 113.427 623.714 117C623.714 120.547 624.848 123.534 627.114 125.96C629.408 128.387 632.221 129.6 635.554 129.6C637.501 129.6 639.221 129.24 640.714 128.52C642.208 127.8 643.701 126.707 645.194 125.24L646.594 126.6C644.968 128.2 643.288 129.414 641.554 130.24C639.821 131.067 637.794 131.48 635.474 131.48Z" fill="#efefef"/>
<path d="M659.126 131V103H661.206V128L679.406 103H681.446V131H679.366V106L661.206 131H659.126Z" fill="#efefef"/>
<path d="M696.551 131V103H698.631V128L716.831 103H718.871V131H716.791V106L698.631 131H696.551ZM711.311 99.4002C710.324 100.254 709.137 100.68 707.751 100.68C706.364 100.68 705.177 100.254 704.191 99.4002C703.204 98.5202 702.591 97.4135 702.351 96.0802L703.991 95.7202C704.497 97.6669 705.751 98.6402 707.751 98.6402C709.751 98.6402 711.004 97.6669 711.511 95.7202L713.151 96.0802C712.911 97.4135 712.297 98.5202 711.311 99.4002Z" fill="#efefef"/>
<path d="M746.656 131.48C742.682 131.48 739.362 130.094 736.696 127.32C734.056 124.52 732.736 121.08 732.736 117C732.736 113 734.069 109.587 736.736 106.76C739.402 103.934 742.736 102.52 746.736 102.52C749.029 102.52 750.976 102.907 752.576 103.68C754.202 104.454 755.842 105.6 757.496 107.12L756.136 108.52C753.309 105.774 750.162 104.4 746.696 104.4C743.336 104.4 740.522 105.614 738.256 108.04C736.016 110.44 734.896 113.427 734.896 117C734.896 120.547 736.029 123.534 738.296 125.96C740.589 128.387 743.402 129.6 746.736 129.6C748.682 129.6 750.402 129.24 751.896 128.52C753.389 127.8 754.882 126.707 756.376 125.24L757.776 126.6C756.149 128.2 754.469 129.414 752.736 130.24C751.002 131.067 748.976 131.48 746.656 131.48Z" fill="#efefef"/>
<path d="M770.307 131V103H772.387V121.4L790.227 103H793.067L780.827 115.36L793.587 131H790.867L779.347 116.84L772.387 123.88V131H770.307Z" fill="#efefef"/>
<path d="M805.701 131V103H807.781V128L825.981 103H828.021V131H825.941V106L807.781 131H805.701Z" fill="#efefef"/>
<path d="M843.126 131V103H845.206V128L863.406 103H865.446V131H863.366V106L845.206 131H843.126ZM857.886 99.4002C856.899 100.254 855.712 100.68 854.326 100.68C852.939 100.68 851.752 100.254 850.766 99.4002C849.779 98.5202 849.166 97.4135 848.926 96.0802L850.566 95.7202C851.072 97.6669 852.326 98.6402 854.326 98.6402C856.326 98.6402 857.579 97.6669 858.086 95.7202L859.726 96.0802C859.486 97.4135 858.872 98.5202 857.886 99.4002Z" fill="#efefef"/>
<path d="M918.135 131V103H935.615V104.92H920.215V131H918.135Z" fill="#efefef"/>
<path d="M971.489 127.2C968.849 130.054 965.462 131.48 961.329 131.48C957.195 131.48 953.822 130.067 951.209 127.24C948.595 124.387 947.289 120.974 947.289 117C947.289 113.054 948.609 109.654 951.249 106.8C953.889 103.947 957.275 102.52 961.409 102.52C965.542 102.52 968.915 103.947 971.529 106.8C974.142 109.627 975.449 113.027 975.449 117C975.449 120.947 974.129 124.347 971.489 127.2ZM952.849 125.92C955.142 128.374 957.995 129.6 961.409 129.6C964.822 129.6 967.649 128.387 969.889 125.96C972.155 123.534 973.289 120.547 973.289 117C973.289 113.507 972.142 110.534 969.849 108.08C967.582 105.627 964.742 104.4 961.329 104.4C957.915 104.4 955.075 105.614 952.809 108.04C950.569 110.467 949.449 113.454 949.449 117C949.449 120.494 950.582 123.467 952.849 125.92Z" fill="#efefef"/>
<path d="M1001.99 131.48C998.02 131.48 994.7 130.094 992.033 127.32C989.393 124.52 988.073 121.08 988.073 117C988.073 113 989.406 109.587 992.073 106.76C994.74 103.934 998.073 102.52 1002.07 102.52C1004.37 102.52 1006.31 102.907 1007.91 103.68C1009.54 104.454 1011.18 105.6 1012.83 107.12L1011.47 108.52C1008.65 105.774 1005.5 104.4 1002.03 104.4C998.673 104.4 995.86 105.614 993.593 108.04C991.353 110.44 990.233 113.427 990.233 117C990.233 120.547 991.366 123.534 993.633 125.96C995.926 128.387 998.74 129.6 1002.07 129.6C1004.02 129.6 1005.74 129.24 1007.23 128.52C1008.73 127.8 1010.22 126.707 1011.71 125.24L1013.11 126.6C1011.49 128.2 1009.81 129.414 1008.07 130.24C1006.34 131.067 1004.31 131.48 1001.99 131.48Z" fill="#efefef"/>
<path d="M1029.56 131.48C1027.96 131.48 1026.47 131.16 1025.08 130.52L1025.88 128.72C1026.98 129.254 1028.2 129.52 1029.56 129.52C1032.15 129.52 1034.26 127.894 1035.88 124.64L1023.24 103H1025.68L1036.92 122.48L1046.52 103H1048.8L1037.68 125.32C1035.63 129.427 1032.92 131.48 1029.56 131.48Z" fill="#efefef"/>
<path d="M1057.75 137.4V129.08H1060.75C1062.19 127.08 1063.29 124.32 1064.07 120.8C1064.84 117.254 1065.23 113.294 1065.23 108.92V103H1082.39V129.08H1086.19L1085.79 137.4H1084.03V131H1059.91L1059.51 137.4H1057.75ZM1063.15 129.08H1080.31V104.92H1067.27V110.44C1067.27 114.227 1066.89 117.814 1066.15 121.2C1065.43 124.587 1064.43 127.214 1063.15 129.08Z" fill="#efefef"/>
<path d="M1095.95 131L1108.99 102.8H1110.99L1124.03 131H1121.75L1118.19 123.16H1101.67L1098.11 131H1095.95ZM1102.55 121.28H1117.31L1109.95 105.08L1102.55 121.28Z" fill="#efefef"/>
<path d="M1136.75 131V103H1146.91C1150.03 103 1152.53 103.774 1154.43 105.32C1156.35 106.84 1157.31 108.947 1157.31 111.64C1157.31 114.467 1156.25 116.667 1154.15 118.24C1152.07 119.787 1149.48 120.56 1146.39 120.56H1138.83V131H1136.75ZM1138.83 118.64H1146.51C1149.12 118.64 1151.23 118.014 1152.83 116.76C1154.43 115.48 1155.23 113.787 1155.23 111.68C1155.23 109.52 1154.45 107.854 1152.91 106.68C1151.39 105.507 1149.33 104.92 1146.75 104.92H1138.83V118.64Z" fill="#efefef"/>
<path d="M1182.95 131.48C1178.97 131.48 1175.65 130.094 1172.99 127.32C1170.35 124.52 1169.03 121.08 1169.03 117C1169.03 113 1170.36 109.587 1173.03 106.76C1175.69 103.934 1179.03 102.52 1183.03 102.52C1185.32 102.52 1187.27 102.907 1188.87 103.68C1190.49 104.454 1192.13 105.6 1193.79 107.12L1192.43 108.52C1189.6 105.774 1186.45 104.4 1182.99 104.4C1179.63 104.4 1176.81 105.614 1174.55 108.04C1172.31 110.44 1171.19 113.427 1171.19 117C1171.19 120.547 1172.32 123.534 1174.59 125.96C1176.88 128.387 1179.69 129.6 1183.03 129.6C1184.97 129.6 1186.69 129.24 1188.19 128.52C1189.68 127.8 1191.17 126.707 1192.67 125.24L1194.07 126.6C1192.44 128.2 1190.76 129.414 1189.03 130.24C1187.29 131.067 1185.27 131.48 1182.95 131.48Z" fill="#efefef"/>
<path d="M1214.36 131V104.92H1204.6V103H1226.2V104.92H1216.44V131H1214.36Z" fill="#efefef"/>
<path d="M1239.33 131V103H1250.89C1253.64 103 1255.84 103.64 1257.49 104.92C1259.15 106.174 1259.97 107.854 1259.97 109.96C1259.97 113.107 1258.39 115.32 1255.21 116.6C1259.43 117.694 1261.53 119.947 1261.53 123.36C1261.53 125.68 1260.61 127.534 1258.77 128.92C1256.96 130.307 1254.53 131 1251.49 131H1239.33ZM1241.41 129.08H1251.57C1253.97 129.08 1255.88 128.56 1257.29 127.52C1258.71 126.48 1259.41 125.067 1259.41 123.28C1259.41 121.547 1258.68 120.214 1257.21 119.28C1255.75 118.32 1253.64 117.84 1250.89 117.84H1241.41V129.08ZM1241.41 115.92H1250.65C1252.81 115.92 1254.55 115.414 1255.85 114.4C1257.19 113.387 1257.85 111.947 1257.85 110.08C1257.85 108.507 1257.24 107.254 1256.01 106.32C1254.79 105.387 1253.07 104.92 1250.85 104.92H1241.41V115.92Z" fill="#efefef"/>
<path d="M1275 131V103H1294.92V104.92H1277.08V115.92H1293.12V117.84H1277.08V129.08H1295.12V131H1275Z" fill="#efefef"/>
<path d="M1308.6 131V103H1310.68V115.96H1328.6V103H1330.68V131H1328.6V117.88H1310.68V131H1308.6Z" fill="#efefef"/>
<path d="M1345.79 131V103H1347.87V115.96H1365.79V103H1367.87V131H1365.79V117.88H1347.87V131H1345.79Z" fill="#efefef"/>
<path d="M1382.98 131V103H1385.06V114.24H1393.34C1396.25 114.24 1398.67 114.907 1400.62 116.24C1402.57 117.574 1403.54 119.587 1403.54 122.28C1403.54 124.947 1402.62 127.067 1400.78 128.64C1398.97 130.214 1396.55 131 1393.54 131H1382.98ZM1385.06 129.08H1393.18C1395.77 129.08 1397.78 128.52 1399.22 127.4C1400.66 126.254 1401.38 124.574 1401.38 122.36C1401.38 120.334 1400.63 118.8 1399.14 117.76C1397.67 116.694 1395.61 116.16 1392.94 116.16H1385.06V129.08ZM1407.38 131V103H1409.46V131H1407.38Z" fill="#efefef"/>
<path d="M1424.58 131V103H1426.66V128L1444.86 103H1446.9V131H1444.82V106L1426.66 131H1424.58ZM1439.34 99.4002C1438.36 100.254 1437.17 100.68 1435.78 100.68C1434.4 100.68 1433.21 100.254 1432.22 99.4002C1431.24 98.5202 1430.62 97.4135 1430.38 96.0802L1432.02 95.7202C1432.53 97.6669 1433.78 98.6402 1435.78 98.6402C1437.78 98.6402 1439.04 97.6669 1439.54 95.7202L1441.18 96.0802C1440.94 97.4135 1440.33 98.5202 1439.34 99.4002Z" fill="#efefef"/>
<path fill-rule="evenodd" clip-rule="evenodd" d="M0 0V443.29L132.544 367.044V76.8369L0 0ZM384.037 221.645L262.132 151.014L243.218 140.818V303.063L132.691 367.044L384.037 512V384.037L243.218 303.21L262.132 292.424L384.037 221.645Z" fill="#f4f7fe"/>
</svg>
