<svg width="80" height="80" viewBox="0 0 80 80" fill="none" xmlns="http://www.w3.org/2000/svg">
<g filter="url(#filter0_b_273_3804)">
<path d="M20.8333 6.66666C20.8333 5.28594 21.9526 4.16666 23.3333 4.16666H50C51.3807 4.16666 52.5 5.28594 52.5 6.66666C52.5 8.04737 51.3807 9.16666 50 9.16666H23.3333C21.9526 9.16666 20.8333 8.04737 20.8333 6.66666Z" fill="url(#paint0_linear_273_3804)"/>
<path fill-rule="evenodd" clip-rule="evenodd" d="M47.8169 11.0687C44.9357 10.8333 41.3509 10.8333 36.7785 10.8333H36.5548C31.9824 10.8333 28.3976 10.8333 25.5165 11.0687C22.5827 11.3084 20.159 11.8046 17.9652 12.9224C14.3587 14.7599 11.4266 17.6921 9.58904 21.2985C8.47126 23.4923 7.97507 25.916 7.73537 28.8498C7.49997 31.7309 7.49999 35.3157 7.5 39.8881V40.1119C7.49999 44.6843 7.49997 48.269 7.73537 51.1502C7.97507 54.084 8.47126 56.5077 9.58904 58.7015C11.4266 62.3079 14.3587 65.24 17.9652 67.0776C20.159 68.1954 22.5826 68.6916 25.5165 68.9313C28.3974 69.1667 31.9818 69.1667 36.5536 69.1667H36.7786C41.3504 69.1667 44.936 69.1667 47.8169 68.9313C50.7507 68.6916 53.1744 68.1954 55.3682 67.0776C58.9746 65.24 61.9067 62.3079 63.7443 58.7015C64.8621 56.5077 65.3583 54.084 65.598 51.1502C65.7907 48.7907 65.8256 45.9593 65.8319 42.5H70C71.3807 42.5 72.5 41.3807 72.5 40C72.5 38.6193 71.3807 37.5 70 37.5H65.8319C65.8256 34.0407 65.7907 31.2093 65.598 28.8498C65.3583 25.916 64.8621 23.4923 63.7443 21.2985C61.9067 17.6921 58.9746 14.7599 55.3682 12.9224C53.1744 11.8046 50.7507 11.3084 47.8169 11.0687Z" fill="url(#paint1_linear_273_3804)"/>
<path d="M20.8333 73.3333C20.8333 71.9526 21.9526 70.8333 23.3333 70.8333H50C51.3807 70.8333 52.5 71.9526 52.5 73.3333C52.5 74.714 51.3807 75.8333 50 75.8333H23.3333C21.9526 75.8333 20.8333 74.714 20.8333 73.3333Z" fill="url(#paint2_linear_273_3804)"/>
<path d="M9.14354 58.9285L9.58568 58.7032L9.14354 58.9285C11.029 62.629 14.0377 65.6376 17.7382 67.5231C20.0142 68.6828 22.511 69.1874 25.4757 69.4296C28.3769 69.6667 31.978 69.6667 36.5315 69.6667H36.5536H36.7786H36.8007C41.3542 69.6667 44.9564 69.6667 47.8576 69.4296C50.8224 69.1874 53.3192 68.6828 55.5951 67.5231C59.2957 65.6376 62.3043 62.629 64.1898 58.9285C65.3495 56.6525 65.8541 54.1557 66.0963 51.1909C66.2815 48.9244 66.3219 46.234 66.3308 43H70C71.6569 43 73 41.6568 73 40C73 38.3431 71.6569 37 70 37H66.3308C66.3219 33.7659 66.2815 31.0756 66.0963 28.8091C65.8541 25.8443 65.3495 23.3475 64.1898 21.0715C62.3043 17.371 59.2957 14.3624 55.5951 12.4769C53.3192 11.3172 50.8224 10.8126 47.8576 10.5704C44.9561 10.3333 41.3546 10.3333 36.8004 10.3333H36.7785H36.5548H36.5329C31.9787 10.3333 28.3772 10.3333 25.4757 10.5704C22.511 10.8126 20.0142 11.3172 17.7382 12.4769C14.0377 14.3624 11.029 17.371 9.14354 21.0715C7.98388 23.3475 7.47927 25.8443 7.23703 28.8091C6.99997 31.7106 6.99998 35.312 7 39.8662L7 39.8881V40.1119L7 40.1338C6.99998 44.688 6.99997 48.2894 7.23703 51.1909C7.47927 54.1557 7.98388 56.6525 9.14354 58.9285ZM23.3333 3.66666C21.6765 3.66666 20.3333 5.0098 20.3333 6.66666C20.3333 8.32351 21.6765 9.66666 23.3333 9.66666H50C51.6569 9.66666 53 8.32351 53 6.66666C53 5.0098 51.6569 3.66666 50 3.66666H23.3333ZM23.3333 70.3333C21.6765 70.3333 20.3333 71.6765 20.3333 73.3333C20.3333 74.9902 21.6765 76.3333 23.3333 76.3333H50C51.6569 76.3333 53 74.9902 53 73.3333C53 71.6765 51.6569 70.3333 50 70.3333H23.3333Z" stroke="url(#paint3_linear_273_3804)" stroke-linecap="round"/>
</g>
<g filter="url(#filter1_d_273_3804)">
<path d="M39.1667 26.6667C39.1667 25.2859 38.0475 24.1667 36.6667 24.1667C35.286 24.1667 34.1667 25.2859 34.1667 26.6667V38.3333C34.1667 42.4755 37.5246 45.8333 41.6667 45.8333H46.6667C48.0474 45.8333 49.1667 44.714 49.1667 43.3333C49.1667 41.9526 48.0474 40.8333 46.6667 40.8333H41.6667C40.286 40.8333 39.1667 39.714 39.1667 38.3333V26.6667Z" fill="url(#paint4_linear_273_3804)"/>
</g>
<defs>
<filter id="filter0_b_273_3804" x="-17.5" y="-20.8333" width="115" height="121.667" filterUnits="userSpaceOnUse" color-interpolation-filters="sRGB">
<feFlood flood-opacity="0" result="BackgroundImageFix"/>
<feGaussianBlur in="BackgroundImageFix" stdDeviation="12"/>
<feComposite in2="SourceAlpha" operator="in" result="effect1_backgroundBlur_273_3804"/>
<feBlend mode="normal" in="SourceGraphic" in2="effect1_backgroundBlur_273_3804" result="shape"/>
</filter>
<filter id="filter1_d_273_3804" x="31.1667" y="21.1667" width="31" height="37.6667" filterUnits="userSpaceOnUse" color-interpolation-filters="sRGB">
<feFlood flood-opacity="0" result="BackgroundImageFix"/>
<feColorMatrix in="SourceAlpha" type="matrix" values="0 0 0 0 0 0 0 0 0 0 0 0 0 0 0 0 0 0 127 0" result="hardAlpha"/>
<feOffset dx="5" dy="5"/>
<feGaussianBlur stdDeviation="4"/>
<feColorMatrix type="matrix" values="0 0 0 0 0.176471 0 0 0 0 0.556863 0 0 0 0 0.678431 0 0 0 0.5 0"/>
<feBlend mode="normal" in2="BackgroundImageFix" result="effect1_dropShadow_273_3804"/>
<feBlend mode="normal" in="SourceGraphic" in2="effect1_dropShadow_273_3804" result="shape"/>
</filter>
<linearGradient id="paint0_linear_273_3804" x1="7.5" y1="75.8333" x2="80.0387" y2="12.8489" gradientUnits="userSpaceOnUse">
<stop stop-color="#0050AE"/>
<stop offset="1" stop-color="#0074FB"/>
</linearGradient>
<linearGradient id="paint1_linear_273_3804" x1="7.5" y1="75.8333" x2="80.0387" y2="12.8489" gradientUnits="userSpaceOnUse">
<stop stop-color="#0050AE"/>
<stop offset="1" stop-color="#0074FB"/>
</linearGradient>
<linearGradient id="paint2_linear_273_3804" x1="7.5" y1="75.8333" x2="80.0387" y2="12.8489" gradientUnits="userSpaceOnUse">
<stop stop-color="#0050AE"/>
<stop offset="1" stop-color="#0074FB"/>
</linearGradient>
<linearGradient id="paint3_linear_273_3804" x1="7.5" y1="4.16666" x2="78.8555" y2="68.8189" gradientUnits="userSpaceOnUse">
<stop stop-color="white" stop-opacity="0.25"/>
<stop offset="1" stop-color="white" stop-opacity="0"/>
</linearGradient>
<linearGradient id="paint4_linear_273_3804" x1="41.7931" y1="50.4493" x2="69.5875" y2="31.5871" gradientUnits="userSpaceOnUse">
<stop stop-color="white"/>
<stop offset="1" stop-color="white" stop-opacity="0.2"/>
</linearGradient>
</defs>
</svg>
