<svg width="256" height="256" viewBox="0 0 256 256" fill="none" xmlns="http://www.w3.org/2000/svg">
<g clip-path="url(#clip0_103_59)">
<g filter="url(#filter0_f_103_59)">
<path d="M175 166L143.183 147.333L114.667 158.861L168.333 203.667L175 166Z" fill="#052F8F"/>
</g>
<path fill-rule="evenodd" clip-rule="evenodd" d="M112.397 79.6867L77.0549 59.2184V177.389L179.397 118.304L141.871 96.7436V140L179.397 161.56V195.674L112.397 157.057V79.6867Z" fill="white"/>
<path d="M4.85645 162.779L6.32837 167.152L10.4573 165.761L12.7985 166.754L8.20292 172.718L9.97133 177.969L16.9932 168.73L25.8704 172.39L24.1248 167.207L15.8178 163.957L22.2958 161.776L20.8239 157.403L4.85645 162.779ZM15.3941 189.107C17.7511 193.671 23.0046 195.295 27.3028 193.075C31.644 190.834 33.3423 185.675 30.9853 181.111C28.6291 176.547 23.3756 174.923 19.0765 177.142C14.7353 179.383 13.0371 184.542 15.3941 189.107ZM19.159 187.217C18.0029 184.977 19.0879 182.463 21.2485 181.347C23.4511 180.21 26.0651 180.761 27.2212 183.001C28.3888 185.261 27.3028 187.776 25.1432 188.891C22.9397 190.028 20.3265 189.478 19.159 187.217ZM27.5546 207.341C30.0844 210.494 33.3624 211.309 36.0466 209.154C38.5431 207.151 38.0308 204.513 36.2914 200.999C35.2607 198.868 35.1659 198.212 35.7668 197.731C36.2738 197.324 36.9914 197.449 37.6905 198.321C38.6133 199.471 39.2045 201.131 39.3133 202.995L43.329 202.731C43.3422 200.402 42.5589 198.195 40.7878 195.988C38.287 192.873 34.9896 192.379 32.5493 194.337C29.8089 196.537 30.7317 199.302 32.3116 202.577C33.3124 204.671 33.3545 205.338 32.8098 205.775C32.2089 206.257 31.4546 206.009 30.6809 205.045C29.4747 203.543 28.873 201.678 28.8782 199.569L24.8493 199.51C24.6835 202.265 25.7081 205.041 27.5537 207.34L27.5546 207.341ZM39.1896 219.753L42.5905 222.905L46.9264 218.227L58.6825 214.848L54.8983 211.34L48.1974 213.497L49.858 206.668L46.0036 203.095L43.4764 215.128L39.1896 219.752V219.753ZM57.1448 234.572C59.6333 236.283 62.2921 236.739 64.5746 236.526L68.8701 230.279L62.5614 225.94L60.6246 228.756L63.3281 230.615L62.1693 232.301C61.3421 232.287 60.5 232.001 59.579 231.367C57.4035 229.872 56.9606 227.201 58.5018 224.959C59.9877 222.798 62.6763 222.163 64.6544 223.524C66.007 224.454 66.6587 225.603 67.0658 227.11L71.1684 225.93C70.5912 223.664 69.4052 221.737 66.9947 220.08C62.743 217.156 57.4255 218.173 54.643 222.219C51.7246 226.463 52.8729 231.635 57.1439 234.572H57.1448ZM69.2658 241.306L73.4228 243.361L80.8894 228.258L76.7324 226.202L69.2658 241.306ZM79.721 246.471L84.0613 247.889L86.9323 239.104L90.82 250.098L94.663 251.354L99.8963 235.339L95.556 233.921L92.7893 242.386L89.0455 231.794L84.9543 230.457L79.721 246.472V246.471ZM119.223 255.672C123.942 256.025 127.179 253.877 127.584 248.453L128.279 239.14L123.608 238.791L122.901 248.248C122.726 250.6 121.434 251.614 119.584 251.476C117.735 251.337 116.611 250.095 116.793 247.671L117.49 238.334L112.818 237.985L112.114 247.417C111.722 252.673 114.505 255.319 119.223 255.672L119.223 255.672ZM133.758 255.963L138.29 255.402L137.155 246.229L145.347 254.529L149.358 254.032L147.289 237.311L142.758 237.872L143.852 246.709L135.962 238.712L131.69 239.241L133.759 255.962L133.758 255.963ZM156.204 252.565L160.726 251.536L156.991 235.108L152.47 236.136L156.205 252.565H156.204ZM172.599 247.878L176.582 246.308L176.643 228.044L171.93 229.901L172.322 241.208L164.895 232.674L160.094 234.566L172.6 247.877L172.599 247.878ZM187.776 241.135L199.452 234.344L197.455 230.911L189.726 235.407L188.383 233.097L195.29 229.08L193.438 225.897L186.531 229.914L185.248 227.708L192.875 223.273L190.878 219.839L179.305 226.57L187.775 241.134L187.776 241.135ZM204.554 230.608L208.152 227.721L204.958 223.741L206.534 222.476L212.343 224.357L216.497 221.023L209.724 218.929C210.78 216.939 210.768 214.759 209.155 212.749C208.086 211.416 206.883 210.716 205.504 210.556C203.925 210.374 202.131 210.95 200.147 212.543L194.008 217.47L204.554 230.609V230.608ZM202.668 220.888L200.137 217.735L202.492 215.845C203.697 214.877 204.861 214.808 205.69 215.84C206.489 216.835 206.266 218.002 205.042 218.984L202.669 220.889L202.668 220.888ZM224.972 212.068C227.572 208.974 227.734 205.6 225.099 203.385C222.648 201.326 220.161 202.341 217.053 204.731C215.164 206.156 214.539 206.376 213.948 205.881C213.451 205.463 213.434 204.734 214.154 203.879C215.102 202.751 216.615 201.847 218.423 201.379L217.382 197.491C215.095 197.931 213.083 199.128 211.262 201.295C208.692 204.353 208.848 207.684 211.244 209.697C213.934 211.958 216.468 210.514 219.374 208.328C221.232 206.939 221.879 206.768 222.413 207.217C223.003 207.713 222.906 208.501 222.111 209.448C220.872 210.924 219.159 211.876 217.09 212.281L217.815 216.244C220.55 215.87 223.074 214.326 224.971 212.068H224.972ZM232.789 201.657L235.417 197.836L221.534 188.289L218.906 192.11L232.789 201.657H232.789ZM241.12 188.357L243.165 184.221L231.729 178.568L233.942 174.09L230.275 172.277L223.804 185.367L227.472 187.18L229.684 182.703L241.12 188.356V188.357ZM249.292 169.701L250.732 165.293L244.669 163.311L236.682 154.047L235.079 158.952L239.841 164.136L232.944 165.484L231.311 170.48L243.297 167.742L249.291 169.701H249.292Z" fill="white"/>
<path fill-rule="evenodd" clip-rule="evenodd" d="M253.445 139.867L246.326 149.662L241.383 138.615L253.445 139.867Z" fill="white"/>
<path d="M17.6181 126.522C17.6839 123.924 16.497 122.328 13.5286 120.712L0.847115 113.816L0.718168 118.893L8.54181 122.704L0.528695 126.328L0.39624 131.525L13.0041 125.249C13.569 125.769 13.6988 126.326 13.6883 126.735C13.676 127.24 13.512 127.982 13.0628 128.621L16.3847 130.535C17.0874 129.421 17.5777 128.135 17.6189 126.522H17.6181ZM18.1067 112.067L19.126 107.51L12.8777 106.113L14.1856 100.264L20.4338 101.661L21.4531 97.104L5.01113 93.4277L3.99183 97.9847L10.1453 99.3602L8.83742 105.209L2.68307 103.833L1.66465 108.39L18.1067 112.066V112.067ZM22.5417 93.6041L24.0917 89.5322L17.5488 80.0629L26.4119 83.4366L28.0557 79.1173L12.3102 73.1235L10.7602 77.1954L17.3023 86.6646L8.44005 83.291L6.79533 87.6102L22.5408 93.6041H22.5417ZM29.8241 75.8699L34.4004 68.484C36.518 65.0674 36.2662 62.1367 33.811 60.6156C31.8268 59.3858 30.1601 59.8823 28.5092 61.2665C28.7426 59.656 28.3434 58.106 26.6864 57.0797C25.6636 56.4455 24.6908 56.3244 23.7628 56.542C22.404 56.8613 21.168 57.8516 20.0531 59.6516L15.5023 66.9972L29.8241 75.8708V75.8699ZM29.0285 70.0252L26.3891 68.3902L28.2654 65.3621C29.0899 64.0323 29.9812 63.7349 30.7583 64.2174C31.6382 64.7621 31.6776 65.7498 30.9294 66.956L29.0277 70.0252H29.0285ZM23.6066 66.6656L21.09 65.106L22.6873 62.5279C23.4224 61.3411 24.2531 61.006 25.0303 61.4876C25.9101 62.0323 25.9005 62.9612 25.1531 64.1683L23.6066 66.6647V66.6656ZM39.4644 60.8069L48.26 50.3411L45.2197 47.7859L39.3969 54.7139L37.3522 52.9955L42.5548 46.8043L39.7355 44.435L34.5329 50.6262L32.5794 48.985L38.3241 42.1491L35.2838 39.5947L26.5654 49.9683L39.4636 60.8077L39.4644 60.8069ZM50.4968 48.2385L53.9898 45.1394L50.7951 41.5385L52.524 40.0052C55.6564 37.2254 56.5538 33.6307 53.9179 30.6597C51.41 27.8334 47.9039 28.0158 44.717 30.8421L39.3153 35.6342L50.4959 48.2376L50.4968 48.2385ZM48.367 38.8017L45.4118 35.471L47.0504 34.0175C48.3109 32.9 49.5784 32.8044 50.5363 33.8851C51.4468 34.9114 51.2652 36.2307 50.0231 37.3333L48.3661 38.8026L48.367 38.8017ZM70.3941 33.2518C73.5212 31.2167 74.437 28.6965 74.573 25.9948L70.2625 25.8132C70.0853 27.3939 69.6643 28.6439 68.1915 29.6027C66.2143 30.8895 63.7459 30.1412 62.3678 28.0228C61.002 25.9246 61.3038 23.3448 63.281 22.058C64.6327 21.1781 65.988 21.1869 67.4511 21.6702L68.8713 17.5869C66.4915 16.6659 63.8818 16.5843 60.9976 18.4615C56.7213 21.2448 55.6547 26.5342 58.3327 30.6491C61.1029 34.9053 66.359 35.8781 70.3941 33.2526V33.2518ZM78.9431 27.7693L82.9966 26.172L85.5878 14.958L89.065 23.7808L93.365 22.0869L87.1878 6.41155L83.1344 8.00891L80.5431 19.2229L77.066 10.4001L72.7669 12.094L78.9431 27.7693ZM100.862 20.0229L105.416 18.9869L102.586 6.54839L107.514 5.42735L106.607 1.43789L92.1966 4.71595L93.1045 8.70627L98.0325 7.58523L100.862 20.0238V20.0229ZM113.042 17.4299L126.677 16.4264L126.386 12.4659L117.36 13.1299L117.164 10.4659L125.229 9.87206L124.959 6.19927L116.894 6.79313L116.706 4.24841L125.611 3.59315L125.32 -0.367359L111.805 0.626495L113.041 17.429L113.042 17.4299ZM133.848 16.7229L138.504 17.0703L139.454 4.34928L144.495 4.7256L144.799 0.644917L130.061 -0.455078L129.757 3.6256L134.797 4.00192L133.847 16.7229H133.848ZM153.506 19.1264L157.944 20.5773L159.298 16.4369L161.513 15.1606L163.594 22.4255L168.925 24.1685L165.641 12.9913L173.955 8.08698L168.694 6.36681L161.056 11.0615L163.18 4.56419L158.742 3.11332L153.506 19.1273V19.1264ZM178.27 28.9527C182.93 31.257 188.164 29.4676 190.308 25.1316C192.474 20.7518 190.739 15.5711 186.078 13.2668C181.418 10.9624 176.184 12.751 174.04 17.0878C171.874 21.4676 173.609 26.6483 178.27 28.9527ZM180.179 25.1983C177.893 24.0676 177.257 21.3904 178.334 19.2106C179.433 16.9887 181.882 15.8896 184.169 17.0211C186.478 18.1624 187.114 20.8404 186.036 23.0194C184.938 25.2413 182.488 26.3395 180.179 25.1983ZM195.378 39.7122C198.347 41.9719 201.028 41.9859 203.619 41.2052L202.338 37.0851C200.791 37.45 199.471 37.4737 198.073 36.4096C196.196 34.9807 196.07 32.4044 197.6 30.3939C199.116 28.4018 201.648 27.8185 203.525 29.2474C204.808 30.2237 205.256 31.5026 205.293 33.0439L209.617 33.007C209.684 30.4562 208.883 27.9711 206.144 25.8869C202.084 22.7965 196.744 23.572 193.771 27.479C190.694 31.5202 191.548 36.7973 195.378 39.7131V39.7122ZM203.744 45.5578L208.696 51.1394C211.427 54.2183 214.823 54.7446 217.541 52.3332C220.386 49.8096 219.863 46.3166 217.179 43.2921L215.485 41.3833L219.447 37.8693L216.348 34.3763L203.744 45.5569V45.5578ZM209.777 46.4473L212.749 43.8113L214.377 45.6473C215.384 46.7815 215.414 47.9771 214.533 48.7596C213.542 49.6376 212.413 49.4175 211.391 48.2648L209.777 46.4464V46.4473ZM214.494 57.6753L217.592 61.1683L230.196 49.9876L227.097 46.4947L214.493 57.6762L214.494 57.6753ZM219.42 64.3867L221.968 68.2998L232.659 61.3411L236.729 67.5946L240.158 65.3621L233.54 55.1955L219.42 64.3858L219.42 64.3867ZM227.037 77.0401L228.838 81.0076L240.169 83.0287L231.533 86.9471L233.442 91.155L248.784 84.1927L246.983 80.2252L235.653 78.2041L244.289 74.2857L242.379 70.0779L227.036 77.0401H227.037ZM234.431 94.7321L235.467 99.2856L241.71 97.8654L243.04 103.709L236.797 105.129L237.833 109.683L254.261 105.946L253.225 101.393L247.076 102.791L245.747 96.947L251.896 95.5488L250.86 90.9953L234.431 94.7321ZM238.22 111.974L238.581 116.871L241.669 117.85L242.147 124.332L239.236 125.777L239.604 130.77L256 122.371L255.67 117.882L238.221 111.974H238.22ZM245.395 118.952L250.311 120.497L245.672 122.721L245.395 118.952Z" fill="white"/>
<path fill-rule="evenodd" clip-rule="evenodd" d="M17.109 148.731L9.30289 139.475L5.1687 150.849L17.109 148.731Z" fill="white"/>
</g>
<defs>
<filter id="filter0_f_103_59" x="104.667" y="137.333" width="80.3333" height="76.3334" filterUnits="userSpaceOnUse" color-interpolation-filters="sRGB">
<feFlood flood-opacity="0" result="BackgroundImageFix"/>
<feBlend mode="normal" in="SourceGraphic" in2="BackgroundImageFix" result="shape"/>
<feGaussianBlur stdDeviation="5" result="effect1_foregroundBlur_103_59"/>
</filter>
<clipPath id="clip0_103_59">
<rect width="256" height="256" fill="white"/>
</clipPath>
</defs>
</svg>
