<svg width="48" height="48" viewBox="0 0 48 48" fill="none" xmlns="http://www.w3.org/2000/svg">
<path fill-rule="evenodd" clip-rule="evenodd" d="M24 0C37.2548 0 48 10.7452 48 24C48 35.9789 39.2236 45.908 27.75 47.7084V30.9375H33.3422L34.4062 24H27.75V19.5C27.75 17.602 28.68 15.75 31.6613 15.75H34.6875V9.84375C34.6875 9.84375 34.3692 9.78944 33.8458 9.7178C33.0237 9.60527 31.6954 9.44996 30.2997 9.39514C29.9733 9.38232 29.6433 9.375 29.3152 9.375C23.8331 9.375 20.25 12.6975 20.25 18.7125V24H14.1562V30.9375H20.25V47.7084C8.77641 45.908 0 35.9789 0 24C0 10.7452 10.7452 0 24 0Z" fill="#1877F2"/>
</svg>
