<svg width="32" height="32" viewBox="0 0 32 32" fill="none" xmlns="http://www.w3.org/2000/svg">
<path fill-rule="evenodd" clip-rule="evenodd" d="M15.3667 1.89267C15.7351 1.59128 16.2648 1.59128 16.6332 1.89267L31.2999 13.8927C31.7273 14.2424 31.7903 14.8724 31.4406 15.2999C31.0908 15.7273 30.4608 15.7903 30.0334 15.4406L27.6666 13.5041V22.9761C27.6666 24.0599 27.6666 24.934 27.6088 25.6419C27.5492 26.3708 27.4234 27.011 27.1216 27.6032C26.6423 28.5441 25.8774 29.309 24.9366 29.7883C24.3443 30.0901 23.7041 30.2159 22.9752 30.2755C22.2674 30.3333 21.3932 30.3333 20.3094 30.3333H11.6905C10.6067 30.3333 9.73253 30.3333 9.02466 30.2755C8.29581 30.2159 7.65562 30.0901 7.06333 29.7883C6.12252 29.309 5.35762 28.5441 4.87825 27.6032C4.57646 27.011 4.45065 26.3708 4.3911 25.6419C4.33326 24.934 4.33327 24.0599 4.33328 22.9761V13.5041L1.96652 15.4406C1.53907 15.7903 0.909052 15.7273 0.559325 15.2999C0.209597 14.8724 0.272599 14.2424 0.700044 13.8927L15.3667 1.89267ZM6.33328 11.8678V22.9333C6.33328 24.0699 6.33406 24.8622 6.38446 25.4791C6.4339 26.0842 6.52608 26.4319 6.66026 26.6953C6.94788 27.2598 7.40682 27.7187 7.97131 28.0063C8.23467 28.1405 8.58235 28.2327 9.18752 28.2821C9.66214 28.3209 10.2407 28.3303 10.9999 28.3326V21.3333C10.9999 18.5719 13.2385 16.3333 15.9999 16.3333C18.7614 16.3333 20.9999 18.5719 20.9999 21.3333V28.3326C21.7592 28.3303 22.3378 28.3209 22.8124 28.2821C23.4175 28.2327 23.7652 28.1405 24.0286 28.0063C24.5931 27.7187 25.052 27.2598 25.3396 26.6953C25.4738 26.4319 25.566 26.0842 25.6154 25.4791C25.6658 24.8622 25.6666 24.0699 25.6666 22.9333V11.8678L15.9999 3.95869L6.33328 11.8678ZM18.9999 28.3333V21.3333C18.9999 19.6764 17.6568 18.3333 15.9999 18.3333C14.3431 18.3333 12.9999 19.6764 12.9999 21.3333V28.3333H18.9999Z" fill="#5D5FEF"/>
</svg>
