<svg width="32" height="30" viewBox="0 0 32 30" fill="none" xmlns="http://www.w3.org/2000/svg">
<path fill-rule="evenodd" clip-rule="evenodd" d="M15.367 0.892669C15.7353 0.591278 16.2651 0.591278 16.6334 0.892669L31.3001 12.8927C31.7275 13.2424 31.7905 13.8724 31.4408 14.2999C31.0911 14.7273 30.4611 14.7903 30.0336 14.4406L27.6669 12.5041V21.9761C27.6669 23.0599 27.6669 23.934 27.609 24.6419C27.5495 25.3708 27.4237 26.011 27.1219 26.6032C26.6425 27.5441 25.8776 28.309 24.9368 28.7883C24.3445 29.0901 23.7043 29.2159 22.9755 29.2755C22.2676 29.3333 21.3935 29.3333 20.3097 29.3333H11.6907C10.6069 29.3333 9.73278 29.3333 9.0249 29.2755C8.29605 29.2159 7.65586 29.0901 7.06357 28.7883C6.12276 28.309 5.35786 27.5441 4.87849 26.6032C4.57671 26.011 4.45089 25.3708 4.39134 24.6419C4.33351 23.934 4.33352 23.0599 4.33353 21.9761V12.5041L1.96676 14.4406C1.53932 14.7903 0.909296 14.7273 0.559569 14.2999C0.209841 13.8724 0.272844 13.2424 0.700288 12.8927L15.367 0.892669ZM6.33353 10.8678V21.9333C6.33353 23.0699 6.3343 23.8622 6.3847 24.4791C6.43415 25.0842 6.52632 25.4319 6.66051 25.6953C6.94813 26.2598 7.40707 26.7187 7.97155 27.0063C8.23491 27.1405 8.5826 27.2327 9.18777 27.2821C9.66239 27.3209 10.2409 27.3303 11.0002 27.3326V20.3333C11.0002 17.5719 13.2388 15.3333 16.0002 15.3333C18.7616 15.3333 21.0002 17.5719 21.0002 20.3333V27.3326C21.7595 27.3303 22.338 27.3209 22.8126 27.2821C23.4178 27.2327 23.7655 27.1405 24.0288 27.0063C24.5933 26.7187 25.0523 26.2598 25.3399 25.6953C25.4741 25.4319 25.5662 25.0842 25.6157 24.4791C25.6661 23.8622 25.6669 23.0699 25.6669 21.9333V10.8678L16.0002 2.95869L6.33353 10.8678ZM19.0002 27.3333V20.3333C19.0002 18.6764 17.657 17.3333 16.0002 17.3333C14.3433 17.3333 13.0002 18.6764 13.0002 20.3333V27.3333H19.0002Z" fill="white"/>
</svg>
