<svg width="18" height="18" viewBox="0 0 18 18" fill="none" xmlns="http://www.w3.org/2000/svg">
<path fill-rule="evenodd" clip-rule="evenodd" d="M9.93343 9.93334V16.4667C9.93343 16.7142 9.8351 16.9516 9.66006 17.1266C9.48503 17.3017 9.24763 17.4 9.0001 17.4C8.75256 17.4 8.51516 17.3017 8.34013 17.1266C8.1651 16.9516 8.06676 16.7142 8.06676 16.4667V9.93334H1.53343C1.2859 9.93334 1.0485 9.83501 0.873465 9.65997C0.698431 9.48494 0.600098 9.24754 0.600098 9.00001C0.600098 8.75247 0.698431 8.51507 0.873465 8.34004C1.0485 8.16501 1.2859 8.06667 1.53343 8.06667H8.06676V1.53334C8.06676 1.2858 8.1651 1.04841 8.34013 0.873373C8.51516 0.698339 8.75256 0.600006 9.0001 0.600006C9.24763 0.600006 9.48503 0.698339 9.66006 0.873373C9.8351 1.04841 9.93343 1.2858 9.93343 1.53334V8.06667H16.4668C16.7143 8.06667 16.9517 8.16501 17.1267 8.34004C17.3018 8.51507 17.4001 8.75247 17.4001 9.00001C17.4001 9.24754 17.3018 9.48494 17.1267 9.65997C16.9517 9.83501 16.7143 9.93334 16.4668 9.93334H9.93343Z" fill="#5C72E8"/>
</svg>
