<svg width="32" height="32" viewBox="0 0 32 32" fill="none" xmlns="http://www.w3.org/2000/svg">
<path fill-rule="evenodd" clip-rule="evenodd" d="M25.3334 3.66663C23.6766 3.66663 22.3334 5.00977 22.3334 6.66663C22.3334 7.15079 22.4474 7.60547 22.649 8.00796C23.1428 8.99355 24.1604 9.66663 25.3334 9.66663C26.9903 9.66663 28.3334 8.32348 28.3334 6.66663C28.3334 5.00977 26.9903 3.66663 25.3334 3.66663ZM20.3334 6.66663C20.3334 3.9052 22.572 1.66663 25.3334 1.66663C28.0948 1.66663 30.3334 3.9052 30.3334 6.66663C30.3334 9.42805 28.0948 11.6666 25.3334 11.6666C23.7352 11.6666 22.3134 10.9167 21.3988 9.75197L11.4966 14.703C11.6076 15.1172 11.6667 15.5521 11.6667 16C11.6667 16.4478 11.6076 16.8827 11.4966 17.2969L21.3988 22.248C22.3134 21.0832 23.7352 20.3333 25.3334 20.3333C28.0948 20.3333 30.3334 22.5719 30.3334 25.3333C30.3334 28.0947 28.0948 30.3333 25.3334 30.3333C22.572 30.3333 20.3334 28.0947 20.3334 25.3333C20.3334 24.8855 20.3925 24.4506 20.5035 24.0364L10.6014 19.0853C9.68679 20.25 8.26495 21 6.66675 21C3.90532 21 1.66675 18.7614 1.66675 16C1.66675 13.2385 3.90532 11 6.66675 11C8.26495 11 9.68679 11.7499 10.6014 12.9146L20.5035 7.96354C20.3925 7.54937 20.3334 7.11445 20.3334 6.66663ZM6.66675 13C5.00989 13 3.66675 14.3431 3.66675 16C3.66675 17.6568 5.00989 19 6.66675 19C7.83978 19 8.85741 18.3269 9.35116 17.3413C9.5528 16.9388 9.66675 16.4841 9.66675 16C9.66675 15.5158 9.5528 15.0611 9.35116 14.6586C8.85741 13.673 7.83978 13 6.66675 13ZM25.3334 22.3333C24.1604 22.3333 23.1428 23.0064 22.649 23.992C22.4474 24.3945 22.3334 24.8491 22.3334 25.3333C22.3334 26.9901 23.6766 28.3333 25.3334 28.3333C26.9903 28.3333 28.3334 26.9901 28.3334 25.3333C28.3334 23.6764 26.9903 22.3333 25.3334 22.3333Z" fill="#5D5FEF"/>
</svg>
