<svg width="48" height="48" viewBox="0 0 48 48" fill="none" xmlns="http://www.w3.org/2000/svg">
<g clip-path="url(#clip0_167_279)">
<path fill-rule="evenodd" clip-rule="evenodd" d="M45.493 9.66825C46.2378 10.4178 46.7726 11.3498 47.044 12.3709C48.0476 16.14 48.0476 24 48.0476 24C48.0476 24 48.0476 31.86 47.044 35.6291C46.7726 36.6503 46.2378 37.5823 45.493 38.3318C44.7483 39.0813 43.8197 39.6221 42.8003 39.9C39.0476 40.9091 24.0476 40.9091 24.0476 40.9091C24.0476 40.9091 9.04761 40.9091 5.29488 39.9C4.27547 39.6221 3.34693 39.0813 2.60218 38.3318C1.85744 37.5823 1.32262 36.6503 1.05124 35.6291C0.0476074 31.86 0.0476074 24 0.0476074 24C0.0476074 24 0.0476074 16.14 1.05124 12.3709C1.32262 11.3498 1.85744 10.4178 2.60218 9.66825C3.34693 8.91872 4.27547 8.37794 5.29488 8.10003C9.04761 7.09094 24.0476 7.09094 24.0476 7.09094C24.0476 7.09094 39.0476 7.09094 42.8003 8.10003C43.8197 8.37794 44.7483 8.91872 45.493 9.66825ZM31.684 24.0001L19.1385 16.8628V31.1374L31.684 24.0001Z" fill="#FF0302"/>
</g>
<defs>
<clipPath id="clip0_167_279">
<rect width="48" height="48" fill="white"/>
</clipPath>
</defs>
</svg>
